<?xml version="1.0" encoding="iso-8859-1"?>
<!-- Generator: Adobe Illustrator 19.0.0, SVG Export Plug-In . SVG Version: 6.00 Build 0)  -->
<svg version="1.1" id="Layer_1" xmlns="http://www.w3.org/2000/svg" xmlns:xlink="http://www.w3.org/1999/xlink" x="0px" y="0px"
	 viewBox="0 0 496 496" style="enable-background:new 0 0 496 496;" xml:space="preserve">
<g>
	<path style="fill:#333333;" d="M204.064,42.648C201.448,39.72,200,35.936,200,32c0-8.824,7.176-16,16-16
		c6.784,0,12.84,4.288,15.096,10.68l15.096-5.312C241.688,8.584,229.552,0,216,0c-17.648,0-32,14.352-32,32
		c0,7.872,2.88,15.44,8.128,21.304L204.064,42.648z"/>
	<path style="fill:#333333;" d="M280,16c8.824,0,16,7.176,16,16c0,3.944-1.448,7.728-4.072,10.656l11.904,10.688
		C309.104,47.48,312,39.888,312,32c0-17.648-14.352-32-32-32c-13.528,0-25.664,8.568-30.168,21.336l15.08,5.328
		C267.168,20.288,273.232,16,280,16z"/>
</g>
<g>
	<path style="fill:#FFA64D;" d="M379.16,91.16l-97.408-64.944c-20.048-13.376-47.456-13.376-67.504,0L116.84,91.152
		C108.8,96.52,104,105.496,104,115.16c0,15.904,12.936,28.84,28.84,28.84h7.064c7.368-20.944,24.808-37.504,48.6-39.736
		c1.848-0.176,3.72-0.264,5.608-0.264c23.2,0,43.384,13.344,53.888,33.04c10.496-19.696,30.688-33.04,53.888-33.04
		c1.888,0,3.76,0.088,5.608,0.264c23.792,2.232,41.232,18.8,48.6,39.736h7.064c15.904,0,28.84-12.936,28.84-28.84
		C392,105.496,387.2,96.52,379.16,91.16z"/>
	<polygon style="fill:#FFA64D;" points="320,384 176,384 160,384 160,480 336,480 336,384 	"/>
</g>
<g>
	<path style="fill:#333333;" d="M224,192h-16v8c0,22.056,17.944,40,40,40s40-17.944,40-40v-8h-16v8c0,13.232-10.768,24-24,24
		s-24-10.768-24-24V192z"/>
	<path style="fill:#333333;" d="M184,164c0-6.616,5.384-12,12-12s12,5.384,12,12v4h16v-4c0-15.44-12.56-28-28-28s-28,12.56-28,28v4
		h16V164z"/>
	<path style="fill:#333333;" d="M288,164c0-6.616,5.384-12,12-12s12,5.384,12,12v4h16v-4c0-15.44-12.56-28-28-28s-28,12.56-28,28v4
		h16V164z"/>
	<path style="fill:#333333;" d="M304,296c-19.92,0-38.496-10.728-48.496-27.984l-2.256-3.896l-10.368-0.208L240.52,268
		c-10.008,17.264-28.592,28-48.52,28c-19.92,0-38.496-10.728-48.496-27.984l-13.84,8.016C142.496,298.216,166.392,312,192,312
		c21.848,0,42.448-10.032,56-26.752C261.552,301.968,282.152,312,304,312c25.616,0,49.512-13.792,62.36-35.992l-13.84-8.016
		C342.512,285.264,323.928,296,304,296z"/>
	<rect x="184" y="272" style="fill:#333333;" width="16" height="16"/>
	<rect x="296" y="272" style="fill:#333333;" width="16" height="16"/>
	<path style="fill:#333333;" d="M464,432v-8c0-17.744-5.24-34.624-15.088-49.168l17.424-15.248
		c8.688-7.6,13.664-18.576,13.664-30.104V296c0-52.312-38.824-95.728-89.168-102.944c4.968-5.904,8.224-13.192,8.984-21.16
		c1.08-11.256-2.648-22.488-10.2-30.8C382.04,132.776,371.248,128,360,128h-2.664c-10.904-18.232-28.536-29.776-49.096-31.712
		c-2.088-0.184-4.216-0.288-6.36-0.288c-21.088,0-40.8,9.888-53.88,26.472C234.912,105.888,215.2,96,194.12,96
		c-2.144,0-4.264,0.104-6.36,0.288c-20.552,1.936-38.192,13.48-49.088,31.712H136c-11.248,0-22.04,4.776-29.608,13.104
		c-7.552,8.312-11.28,19.536-10.2,30.8c0.76,7.96,4.016,15.248,8.984,21.16C54.824,200.272,16,243.688,16,296v33.48
		c0,11.528,4.976,22.504,13.664,30.112l17.424,15.248C37.24,389.376,32,406.256,32,424v8c-17.648,0-32,14.352-32,32s14.352,32,32,32
		h72c22.056,0,40-17.944,40-40v-24h16v-16h-32v40c0,13.232-10.768,24-24,24H32c-8.824,0-16-7.176-16-16s7.176-16,16-16h16v-24
		c0-13.832,3.864-27.056,11.2-38.568l12.688,11.104C80.344,403.928,91.184,408,102.416,408h3.224
		c17.136,0,32.088-9.368,40.112-23.224c7.52,2,25.008,6.384,46.248,9.952V448h112v-53.272c21.232-3.568,38.728-7.952,46.248-9.952
		C358.272,398.632,373.224,408,390.36,408h3.224c11.224,0,22.072-4.072,30.52-11.472l12.688-11.104
		C444.136,396.944,448,410.168,448,424v24h16c8.824,0,16,7.176,16,16s-7.176,16-16,16h-72c-13.232,0-24-10.768-24-24v-40h-32v16h16
		v24c0,22.056,17.944,40,40,40h72c17.648,0,32-14.352,32-32S481.648,432,464,432z M383.888,170.384
		c-1.008,10.552-9.552,19.096-20.32,21.136c5.296-15.128,5.632-31.712,1.008-47.04c5.04,0.984,9.696,3.528,13.192,7.376
		C382.368,156.92,384.544,163.504,383.888,170.384z M150.792,138.824c8.112-15.368,22.128-25.064,38.464-26.592
		c1.6-0.16,3.224-0.224,4.864-0.224c19.416,0,37.352,11.04,46.824,28.808L248,154.048l7.064-13.24
		C264.528,123.04,282.472,112,301.88,112c1.64,0,3.264,0.072,4.856,0.224c16.344,1.528,30.36,11.224,38.472,26.592
		c9.216,17.488,8.984,39.088-0.608,56.368C331.224,219.28,303.6,248,248,248s-83.224-28.72-96.6-52.816
		C141.808,177.904,141.568,156.304,150.792,138.824z M118.232,151.856c3.496-3.848,8.152-6.392,13.192-7.376
		c-4.624,15.328-4.288,31.912,1.008,47.04c-10.776-2.04-19.32-10.584-20.32-21.136C111.456,163.504,113.632,156.92,118.232,151.856z
		 M288,432h-80v-34.888c13.04,1.704,26.752,2.888,40,2.888c13.248,0,26.96-1.184,40-2.888V432z M248,384
		c-38.16,0-82.136-10.544-96.744-14.336c0.456-2.616,0.744-5.28,0.744-8.024c0-2.184-0.208-4.336-0.504-6.472
		C170.28,359.992,207.544,368,248,368c40.464,0,77.728-8.016,96.504-12.832c-0.296,2.136-0.504,4.288-0.504,6.472
		c0,2.744,0.288,5.408,0.744,8.024C330.144,373.456,286.2,384,248,384z M413.576,384.488c-5.536,4.84-12.64,7.512-19.992,7.512
		h-3.224c-16.744,0-30.36-13.616-30.36-30.36c0-8.872,3.864-17.272,10.6-23.056l42.6-36.512l-10.408-12.144l-42.6,36.504
		c-3.496,2.992-6.432,6.472-8.856,10.256C344.064,338.864,297.928,352,248,352c-49.824,0-96.032-13.128-103.344-15.304
		c-2.424-3.784-5.36-7.264-8.856-10.248l-42.6-36.512L82.792,302.08l42.6,36.52c6.744,5.768,10.608,14.168,10.608,23.04
		c0,16.744-13.616,30.36-30.36,30.36h-3.224c-7.352,0-14.456-2.672-19.992-7.512L40.2,347.544c-5.216-4.56-8.2-11.144-8.2-18.064
		V296c0-48.52,39.48-88,88-88h20.376C156.792,234.656,188.4,264,248,264s91.208-29.344,107.624-56H376c48.52,0,88,39.48,88,88v33.48
		c0,6.92-2.984,13.504-8.192,18.064L413.576,384.488z"/>
</g>
<g>
</g>
<g>
</g>
<g>
</g>
<g>
</g>
<g>
</g>
<g>
</g>
<g>
</g>
<g>
</g>
<g>
</g>
<g>
</g>
<g>
</g>
<g>
</g>
<g>
</g>
<g>
</g>
<g>
</g>
</svg>
