<svg height="511pt" viewBox="0 0 511.99553 511" width="511pt" xmlns="http://www.w3.org/2000/svg"><path d="m285.660156 405.542969c5.65625.636719 11.34375.960937 17.039063.972656 2.027343 0 4.148437 0 6.179687-.175781h.351563l77.242187-24.894532c0-.050781.039063-.089843.085938-.089843 6.742187-4.441407 13.039062-9.527344 18.804687-15.183594 22.167969-21.617187 35-51.050781 35.75-82.007813.367188-6.734374.339844-13.484374-.085937-20.214843-.808594-29.117188-8.140625-57.6875-21.453125-83.597657-15.632813-25.527343-34.339844-49.035156-55.699219-70.003906-24.453125-26.039062-42.816406-70.617187-11.125-98.691406-.96875 0-19.421875-6.972656-20.921875-7.414062-15.433594-4.417969-31.722656-4.933594-47.402344-1.5-51.730469 13.242187-64.972656 66.03125-53.9375 110.875-37.871093-8.300782-58.96875 4.414062-69.386719 14.917968-1.917968 1.929688-2.632812 4.753906-1.859374 7.367188.773437 2.609375 2.90625 4.589844 5.570312 5.167968 6.039062 1.53125 11.992188 3.386719 17.832031 5.5625 15.359375 6.972657 28.246094 20.917969 25.597657 37.074219-2.558594 9.214844-7.816407 17.453125-15.09375 23.65625-7.339844 7.972657-13.414063 17.023438-18.007813 26.835938-7.519531 15.210937-11.449219 31.941406-11.476563 48.90625.050782 20.285156 5.601563 40.175781 16.066407 57.554687zm0 0" fill="#f0c419"/><path d="m222.277344 344.722656c-1.332032-4.625-2.042969-9.402344-2.117188-14.214844.34375-17.5625 8.339844-34.105468 21.890625-45.285156 10.242188-8.738281 22.6875-15.003906 32.929688-23.832031 9.875-7.863281 17.011719-18.648437 20.390625-30.808594 2.042968-13.9375 2.632812-28.050781 1.765625-42.109375 0 .972656 4.765625 3.265625 5.5625 3.796875 17.121093 11.664063 29.394531 29.179688 34.515625 49.257813.894531 3.683594 1.484375 7.433594 1.765625 11.210937.085937.089844.085937.175781.085937.351563 1.414063 19.335937-8.738281 36.636718-19.242187 52.96875-.441407.703125 8.914062 4.589844 9.796875 4.855468 11.042968 3.078126 22.851562 1.648438 32.839844-3.972656 3.359374-1.980468 6.226562-4.699218 8.386718-7.945312 1.847656-3.519532 3.242188-7.257813 4.148438-11.125 0 .355468 4.148437 4.945312 4.589844 5.472656 1.765624 2.707031 3.328124 5.542969 4.679687 8.476562 2.414063 5.113282 4.277344 10.46875 5.5625 15.976563 7.058594 27.894531-4.152344 52.171875-24.71875 70.710937l-.089844.085938-67.46875 36.300781zm0 0" fill="#e57e25"/><path d="m17.65625 291.757812h44.136719c9.75 0 17.65625 7.902344 17.65625 17.652344v185.378906c0 9.753907-7.90625 17.65625-17.65625 17.65625h-44.136719c-9.75 0-17.65625-7.902343-17.65625-17.65625v-185.378906c0-9.75 7.90625-17.652344 17.65625-17.652344zm0 0" fill="#4482c3"/><path d="m79.449219 503.617188h223.335937c11.335938.003906 22.449219-3.113282 32.132813-9.003907l165.429687-100.722656c5.839844-3.523437 9.914063-9.359375 11.210938-16.054687 1.292968-6.699219-.308594-13.628907-4.414063-19.078126v-.089843c-6.261719-8.3125-17.121093-11.71875-27.011719-8.472657l-129.765624 43.253907-33.632813 11.210937c-3.609375 1.230469-7.398437 1.855469-11.210937 1.855469h-20.746094c1.722656-1.726563 3.234375-3.652344 4.503906-5.738281 6.378906-10.140625 6.515625-23.007813.351562-33.28125l-.792968-1.324219c-.597656-.976563-1.246094-1.917969-1.941406-2.824219-8.214844-11.707031-21.628907-18.664062-35.929688-18.625h-46.167969c-18.289062-.027344-36.023437-6.25-50.316406-17.65625s-32.03125-17.628906-50.320313-17.65625h-24.714843zm0 0" fill="#fdd7ad"/><path d="m35.308594 432.996094c-4.875 0-8.824219-3.949219-8.824219-8.824219v-61.792969c0-4.878906 3.949219-8.828125 8.824219-8.828125 4.878906 0 8.828125 3.949219 8.828125 8.828125v61.792969c0 4.875-3.949219 8.824219-8.828125 8.824219zm0 0" fill="#285680"/><path d="m44.136719 327.066406c0 4.875-3.949219 8.828125-8.828125 8.828125-4.875 0-8.824219-3.953125-8.824219-8.828125s3.949219-8.828125 8.824219-8.828125c4.878906 0 8.828125 3.953125 8.828125 8.828125zm0 0" fill="#285680"/><path d="m176.550781 432.996094c-3.890625.011718-7.328125-2.527344-8.464843-6.25-1.136719-3.71875.296874-7.746094 3.53125-9.910156l6.445312-4.328126c14.507812-9.660156 31.550781-14.816406 48.984375-14.820312h57.730469c4.875 0 8.828125 3.953125 8.828125 8.828125s-3.953125 8.828125-8.828125 8.828125h-57.730469c-13.941406.007812-27.566406 4.132812-39.167969 11.855469l-6.402344 4.296875c-1.457031.980468-3.171874 1.503906-4.925781 1.5zm0 0" fill="#f09372"/></svg>