<?xml version="1.0" encoding="iso-8859-1"?>
<!-- Generator: Adobe Illustrator 19.0.0, SVG Export Plug-In . SVG Version: 6.00 Build 0)  -->
<svg version="1.1" id="Capa_1" xmlns="http://www.w3.org/2000/svg" xmlns:xlink="http://www.w3.org/1999/xlink" x="0px" y="0px"
	 viewBox="0 0 512 512" style="enable-background:new 0 0 512 512;" xml:space="preserve">
<g>
	<path style="fill:#00A1E0;" d="M448.026,429.973c0,0,46.897,24.296,46.897,82.027h-85.554l-5.564-68.86L448.026,429.973z"/>
	<path style="fill:#00A1E0;" d="M63.97,429.973c0,0-46.897,24.296-46.897,82.027h85.554l5.564-68.86L63.97,429.973z"/>
</g>
<path style="fill:#008FC7;" d="M80.899,435.014l-16.929-5.041c0,0-46.897,24.296-46.897,82.027h24.724
	C41.797,469.203,67.565,444.785,80.899,435.014z"/>
<polygon style="fill:#DC5A64;" points="315.967,512 196.028,512 129.955,486.264 129.955,426.447 176.384,374.975 341.877,374.975 
	382.04,434.859 363.462,493.22 "/>
<g>
	<path style="fill:#87543D;" d="M36.374,285.731c0,39.163,34.257,66.29,8.521,96.199c0,0,6.26,19.476,43.124,32.692
		c36.865,13.215,50.776-69.556,50.776-69.556L89.99,276.902L36.374,285.731z"/>
	<path style="fill:#87543D;" d="M475.621,285.731c0,39.163-34.257,66.29-8.521,96.199c0,0-6.26,19.476-43.124,32.692
		c-36.865,13.215-50.776-69.556-50.776-69.556l48.805-68.165L475.621,285.731z"/>
</g>
<path style="fill:#008FC7;" d="M471.452,449.312c-11.716-13.273-23.425-19.339-23.425-19.339l-44.222,13.167l5.564,68.86h32.583
	C457.344,490.503,467.191,469.559,471.452,449.312z"/>
<g>
	<path style="fill:#EFEDEE;" d="M347.753,408.334c0,0,17.404,66.106-31.785,103.666h93.401
		c89.031-106.421-3.248-154.283-3.248-154.283L347.753,408.334z"/>
	<path style="fill:#EFEDEE;" d="M164.243,408.334c0,0-17.404,66.106,31.785,103.666h-93.402
		c-89.031-106.421,3.248-154.283,3.248-154.283L164.243,408.334z"/>
</g>
<path style="fill:#D4D2D3;" d="M120.137,370.086l-14.263-12.368c0,0-92.279,47.862-3.248,154.283h30.905
	C70.352,436.48,98.478,390.45,120.137,370.086z"/>
<path style="fill:#FBC4AC;" d="M335.611,419.389c-34.806,10.331-79.613,51.599-79.613,51.599s-44.808-41.267-79.613-51.599
	l19.643-29.807h119.94L335.611,419.389z"/>
<path style="fill:#87543D;" d="M457.315,152.454h-0.022l0.022-0.003L255.999,132.6L54.683,152.451
	c-15.219,29.158-23.261,61.497-23.261,95.037h449.152C480.574,213.948,472.532,181.61,457.315,152.454z"/>
<g>
	<circle style="fill:#FBC4AC;" cx="57.61" cy="247.491" r="43.745"/>
	<circle style="fill:#FBC4AC;" cx="454.39" cy="247.491" r="43.745"/>
</g>
<ellipse style="fill:#A36549;" cx="255.998" cy="247.491" rx="198.382" ry="187.627"/>
<path style="fill:#FBC4AC;" d="M108.818,152.451c-18.733,57.024,6.374,113.638,76.777,113.638h140.806
	c70.404,0,95.509-56.615,76.777-113.638l-147.181-7.387L108.818,152.451z"/>
<path style="fill:#3A484A;" d="M156.157,239.604c-4.267,0-7.726-3.459-7.726-7.726v-29.889c0-4.267,3.459-7.726,7.726-7.726
	c4.267,0,7.726,3.459,7.726,7.726v29.889C163.883,236.146,160.425,239.604,156.157,239.604z"/>
<path style="fill:#87543D;" d="M255.998,285.469c33.324,34.447,66.421,20.983,82.584,10.503c4.243-2.751,4.384-8.818,0.437-11.979
	c-22.911-18.341-22.925-89.236-83.022-52.114c-60.097-37.123-60.111,33.773-83.022,52.114c-3.948,3.161-3.807,9.228,0.437,11.979
	C189.577,306.45,222.673,319.916,255.998,285.469z"/>
<path style="fill:#313D40;" d="M255.998,269.136c-9.189,0-17.819-3.843-23.675-10.543c-2.808-3.213-2.48-8.094,0.732-10.902
	c3.213-2.807,8.093-2.481,10.902,0.734c2.921,3.342,7.309,5.259,12.04,5.259c4.731,0,9.119-1.917,12.041-5.259
	c2.808-3.213,7.689-3.541,10.902-0.732c3.213,2.808,3.541,7.689,0.732,10.902C273.816,265.295,265.187,269.136,255.998,269.136z"/>
<path style="fill:#3A484A;" d="M355.839,239.604c-4.267,0-7.726-3.459-7.726-7.726v-29.889c0-4.267,3.459-7.726,7.726-7.726
	s7.726,3.459,7.726,7.726v29.889C363.565,236.146,360.106,239.604,355.839,239.604z"/>
<path style="fill:#FFCE1C;" d="M429.597,4.929L429.597,4.929c-7.074-6.572-18.02-6.572-25.094,0l-27.716,25.746L349.071,4.929
	c-7.074-6.572-18.02-6.572-25.094,0l-27.716,25.746L268.545,4.929c-7.074-6.572-18.02-6.572-25.094,0l-27.716,25.746L188.018,4.929
	c-7.074-6.572-18.02-6.572-25.094,0l-27.716,25.746L107.492,4.929c-7.074-6.572-18.02-6.572-25.094,0l0,0
	C64.724,21.347,54.682,53.772,54.682,77.894v34.854l201.317,19.851l201.315-19.851V77.894
	C457.313,53.772,447.271,21.347,429.597,4.929z"/>
<path style="fill:#ECB000;" d="M85.587,112.748V77.894c0-22.821,8.991-53.061,24.924-70.16l-3.019-2.805
	c-7.074-6.572-18.02-6.572-25.094,0l0,0C64.724,21.347,54.682,53.772,54.682,77.894v34.854l201.317,19.851l15.453-1.524
	L85.587,112.748z"/>
<path style="fill:#DC5A64;" d="M255.998,41.928c-6.339,0-11.477,5.139-11.477,11.476v21.262c0,6.339,5.139,11.477,11.477,11.477
	s11.477-5.139,11.477-11.477V53.405C267.475,47.066,262.336,41.928,255.998,41.928z"/>
<path style="fill:#FFA74F;" d="M457.315,112.748H54.683c-10.963,0-19.851,8.887-19.851,19.851l0,0
	c0,10.963,8.887,19.851,19.851,19.851h402.632c10.963,0,19.851-8.887,19.851-19.851l0,0
	C477.165,121.636,468.278,112.748,457.315,112.748z"/>
<path style="fill:#F2973D;" d="M65.738,132.599L65.738,132.599c0-10.963,8.887-19.851,19.851-19.851H54.683
	c-10.963,0-19.851,8.887-19.851,19.851l0,0c0,10.963,8.887,19.851,19.851,19.851h30.905
	C74.625,152.45,65.738,143.562,65.738,132.599z"/>
<g>
	<path style="fill:#A36549;" d="M163.598,186.892h-14.881c-7.062,0-12.787,5.725-12.787,12.787c0,7.062,5.725,12.787,12.787,12.787
		h14.881c7.062,0,12.787-5.725,12.787-12.787C176.384,192.616,170.659,186.892,163.598,186.892z"/>
	<path style="fill:#A36549;" d="M348.399,186.892h14.881c7.062,0,12.787,5.725,12.787,12.787c0,7.062-5.725,12.787-12.787,12.787
		h-14.881c-7.062,0-12.787-5.725-12.787-12.787C335.611,192.616,341.336,186.892,348.399,186.892z"/>
</g>
<g>
</g>
<g>
</g>
<g>
</g>
<g>
</g>
<g>
</g>
<g>
</g>
<g>
</g>
<g>
</g>
<g>
</g>
<g>
</g>
<g>
</g>
<g>
</g>
<g>
</g>
<g>
</g>
<g>
</g>
</svg>
