<svg height="512pt" viewBox="0 -67 512.00004 512" width="512pt" xmlns="http://www.w3.org/2000/svg"><g fill="#96786e"><path d="m379.003906 82.003906 23-30s-35-44-108-32c-75.980468 12.488282-110 90-110 90zm0 0"/><path d="m303.652344 271.527344-30.503906 56.476562h-40l23.480468-71.972656zm0 0"/><path d="m179.820312 236.707031-16.167968 34.820313 19.496094 56.476562h-40l-26.519532-31.972656c-12.105468-14.59375-16.601562-34.054688-12.121094-52.480469l8.640626-35.546875zm0 0"/></g><path d="m326.300781 182.003906c0 52.464844-23 105-125 105-142.296875 0-165-72.535156-165-125 0-21 42.535157-65 95-65 52.46875 0 195 32.53125 195 85zm0 0" fill="#fa9664"/><path d="m164.003906 110.003906s81-47 131-47c38 0 125 37 140 56s13 69 13 69c12 3 45 36 54 62-7 11-43 26-43 26s-29-13-42-13-64 26-80-31l-47 17zm0 0" fill="#fa9664"/><path d="m283.148438 368.003906h-50v-40h40zm0 0" fill="#81b3e6"/><path d="m193.148438 368.003906h-50v-40h40zm0 0" fill="#81b3e6"/><path d="m93.148438 368.003906h-50v-40h40zm0 0" fill="#c8e7f9"/><path d="m153.148438 218.003906c.320312 27.742188-10.980469 54.351563-31.164063 73.382813l-38.835937 36.617187h-50l34.238281-55.167968-10.238281-40.832032zm0 0" fill="#fa9664"/><path d="m373.148438 368.003906h-50v-40h40zm0 0" fill="#c8e7f9"/><path d="m339.820312 206.707031-6.167968 54.820313 29.496094 66.476562h-40l-36.519532-41.972656c-12.109375-14.59375-16.601562-34.054688-12.121094-52.480469zm0 0" fill="#fa9664"/><path d="m370.882812 100.542969s31.929688-21.9375 46.839844-18.519531l-16.726562 39.625zm0 0" fill="#fa9664"/><path d="m389.183594 246.886719 101.820312-60.882813-76.355468 88.042969c-5.132813 6.507813-13.921876 8.890625-21.640626 5.871094-14.050781-5.496094-16.25-24.464844-3.824218-33.03125zm0 0" fill="#f0e6d2"/><path d="m407.292969 155.085938-23-3c-5.464844-.71875-10.492188 3.148437-11.207031 8.625-.714844 5.476562 3.144531 10.496093 8.621093 11.207031l9.292969 1.214843v3.871094c0 5.523438 4.480469 10 10 10 5.523438 0 10-4.476562 10-10v-3.347656c2.601562-1.503906 4.5-4.152344 4.917969-7.359375.710937-5.476563-3.148438-10.496094-8.625-11.210937zm0 0"/><path d="m511.449219 246.730469c-4.410157-12.738281-14.261719-27.433594-25.210938-39.972657l12.316407-14.203124c3.21875-3.710938 3.265624-9.210938.109374-12.976563-3.160156-3.765625-8.582031-4.675781-12.796874-2.160156l-18.363282 10.980469c-3.292968-2.683594-6.46875-4.957032-9.390625-6.683594.03125-15.371094-1.460937-51.425782-15.265625-68.910156-4.226562-5.351563-11.8125-10.929688-20.449218-16.15625 0 0 4.523437-10.714844 4.53125-10.738282 2.367187-5.609375-1.082032-12.285156-6.976563-13.636718-6.167969-1.414063-13.882813-.347657-23.375 3.234374l13.359375-17.421874c2.792969-3.644532 2.746094-8.71875-.109375-12.3125-.628906-.785157-7-8.585938-19.320313-16.90625l7.667969-7.902344c3.847657-3.960938 3.753907-10.292969-.210937-14.140625-3.964844-3.847657-10.292969-3.75-14.140625.210937l-11.457031 11.804688c-19.121094-8.488282-45.683594-14.347656-79.988282-8.707032-5.625.925782-11.179687 2.222657-16.652344 3.867188l-2.179687-6.980469c-1.648437-5.273437-7.253906-8.207031-12.527344-6.5625-5.273437 1.648438-8.210937 7.253907-6.5625 12.527344l2.554688 8.179687c-7.140625 3.34375-14.085938 7.3125-20.796875 11.90625l-5.140625-5.140624c-3.90625-3.902344-10.238281-3.902344-14.144531 0-3.902344 3.90625-3.902344 10.238281 0 14.144531l3.402343 3.398437c-6.0625 5.355469-11.875 11.261719-17.40625 17.691406-7.554687 8.789063-13.503906 17.292969-17.957031 24.386719-2.824219 1.402344-5.46875 2.746094-7.917969 4.007813-18.089843-3.011719-34.164062-4.558594-45.75-4.558594-50.804687 0-95.953125 38.578125-103.792969 66.824219-2.972656 1.285156-5.738281 3.234375-8.207031 5.820312-10.144531 10.609375-16.164062 32.808594-18.398437 67.875-1.5625 24.496094-.632813 46.023438-.589844 46.929688.238281 5.367187 4.664062 9.554687 9.980469 9.554687.148437 0 .300781-.003906.453125-.011718 5.449218-.242188 9.785156-5.003907 9.542968-10.433594-1.21875-27.496094.605469-67.625 7.527344-88.644532 2.597656 18.9375 8.835938 38.003907 20.984375 54.910157l7.855469 31.335937-32.003906 51.570313c-1.914063 3.082031-2.007813 6.960937-.242188 10.132812s5.109375 5.140625 8.738282 5.140625v30c0 5.519532 4.476562 10 10 10h50c3.078124 0 5.988281-1.421875 7.882812-3.847656s2.566406-5.589844 1.816406-8.578125l-8.578125-34.320313 21.652344-20.414062 17.226563 20.765625v36.394531c0 5.519532 4.476562 10 10 10h50c3.078124 0 5.988281-1.421875 7.882812-3.847656s2.566406-5.589844 1.816406-8.578125c0 0-10.152344-40.5625-10.246094-40.839844l-9.722656-28.164062c5.925782.277343 12.058594.429687 18.421875.429687 11.394531 0 22.082031-.664062 32.078125-1.957031 0 0-9.742187 29.875-9.746094 29.886719-.316406.984375-.484374 2.035156-.484374 3.070312v40c0 5.519532 4.476562 10 10 10h50c3.078124 0 5.988281-1.421875 7.882812-3.847656s2.566406-5.589844 1.816406-8.578125l-9.058594-36.238281 10.445313-19.332032 18.914063 21.738282v36.257812c0 5.519532 4.476562 10 10 10h50c3.078124 0 5.988281-1.421875 7.882812-3.847656s2.566406-5.589844 1.816406-8.578125c0 0-9.996094-39.988281-10-40-.136718-.554687-.328125-1.109375-.558594-1.632813l-24.714843-55.695312c5.539062 4.453125 11.960937 7.539062 19.265625 9.214844 3.105468.710937 6.226562 1.121094 9.3125 1.308594 3.203125 4.636718 7.75 8.320312 13.207031 10.457031 11.523437 4.507812 25.15625.949219 32.976563-8.789063l4.8125-5.550781c8.808593 2.449219 20.117187 6.8125 27.761718 10.238281 2.503906 1.121094 5.402344 1.160156 7.9375.105469 9.125-3.804687 39.527344-17.195313 47.589844-29.863281 1.636719-2.574219 2.011719-5.753906 1.011719-8.640625zm-215.824219-216.859375c25.113281-4.125 51.390625-1.824219 74.191406 10.007812 8.578125 4.453125 14.90625 9.335938 18.957032 12.945313l-15.226563 19.859375-.699219.101562c-31.296875-12.425781-60.144531-19.78125-77.84375-19.78125-21.429687 0-47.664062 7.847656-71.367187 17.226563 16.761719-17.710938 40.605469-35.199219 71.988281-40.359375zm-242.476562 328.132812v-20h22.191406l5 20zm77.335937-60.929687c2.023437-1.992188 3.964844-4.054688 5.816406-6.1875 7.75 1.640625 16.015625 2.972656 24.828125 3.972656l7.988282 23.144531h-21.269532zm22.664063 60.929687v-20h22.191406l5 20zm90 0v-20h22.191406l5 20zm24.035156-40h-20.253906l8.878906-27.21875c6.265625-1.628906 12.171875-3.582031 17.722656-5.847656 1.625 2.59375 5.5 7.597656 5.550781 7.65625l1.125 1.292969zm93.15625 40h-27.191406v-20h22.191406zm23.710937-119.699218c-.1875.109374-.367187.226562-.546875.347656-6.640625 4.582031-10.945312 11.609375-12.128906 19.34375-10.539062-2.367188-19.019531-9.847656-24.230469-26.984375l2.609375-23.183594c.617188-5.488281-3.328125-10.4375-8.816406-11.058594-5.484375-.625-10.441406 3.332031-11.058594 8.820313l-6.167968 54.816406c-.195313 1.765625.078124 3.550781.796874 5.175781l23.261719 52.421875h-20.066406l-33.453125-38.445312c-9.984375-12.09375-13.734375-28.402344-10.027344-43.648438.007813-.035156.011719-.070312.019532-.109375.773437-3.320312 1.140624-6.15625-.839844-9.21875-2.964844-4.574219-9.234375-5.933593-13.820313-2.976562-6.628906 4.277343-14.859375 7.527343-24.480469 9.648437-5.320312 1.171875-8.78125 6.609375-7.597656 11.929688.996094 4.488281 5.160156 7.839844 9.75 7.839844 5.007813 0 10.863282-2.402344 15.589844-4.097657.113281 6.003907 1.003906 11.964844 2.617188 17.726563-17.078126 6.875-38.519532 10.351562-64.160157 10.351562-19.195312 0-36.628906-1.378906-52.332031-4.074218 9.394531-16.636719 14.402344-35.632813 14.179688-55.042969-.0625-5.480469-4.527344-9.882813-10-9.882813-.039063 0-.078126 0-.117188 0-5.519531.0625-9.945312 4.589844-9.882812 10.113282.289062 24.875-9.929688 48.925781-28.027344 65.992187l-35.941406 33.894531h-28.058594l24.761718-39.894531c1.425782-2.300781 1.859376-5.082031 1.203126-7.707031l-10.238282-40.832032c-.714844-2.847656-2.59375-5.09375-4.996094-6.375-10.308593-16.558593-15.550781-37.042968-15.550781-61.191406 0-13.292968 35.269531-55 85-55 6.828125 0 14.546875.480469 22.835938 1.371094-.367188 2.210938.003906 4.554688 1.214843 6.644531 2.769532 4.777344 8.890626 6.402344 13.667969 3.636719.789063-.457031 79.273438-45.652344 125.980469-45.652344 17.621094 0 45.507812 8.253906 71.269531 18.589844-.617187.410156-.984375.660156-1.050781.707031-4.550781 3.125-5.707031 9.351563-2.578125 13.90625 3.125 4.550781 9.351563 5.703125 13.90625 2.578125 7.515625-5.167968 16.894531-10.347656 24.78125-13.644531l-9.546875 22.621094c-2.148438 5.085937.234375 10.953125 5.324219 13.101562 4.898437 2.066407 10.980469-.296875 13.101562-5.324219l4.351563-10.3125c5.992187 3.773438 10.410156 7.210938 12.59375 9.972657 9.230468 11.695312 11.558594 44.488281 10.855468 62.40625-.1875 4.734375 2.96875 8.949219 7.5625 10.101562.628907.164063 1.792969.742188 3.40625 1.773438zm22.742188 29.550781c-2.421875 3.070312-6.5 4.175781-10.144531 2.75-4.457032-1.746094-5.367188-5.617188-5.550782-7.203125-.179687-1.554688-.183594-5.414063 3.539063-8.125l47.878906-28.632813-35.425781 40.851563c-.101563.117187-.199219.234375-.296875.359375zm52.238281-2.746094c-4.203125-1.789063-10.644531-4.394531-17.558594-6.734375l31.554688-36.386719c7.589844 8.945313 13.621094 17.964844 17.308594 25.871094-6.195313 4.925781-19.21875 11.925781-31.304688 17.25zm0 0"/><path d="m208.003906 235.972656c-5.523437-.300781-10.222656 3.96875-10.511718 9.460938-.289063 5.5 3.949218 10.21875 9.460937 10.507812.167969.011719.347656.023438.527344.023438 5.3125 0 9.699219-4.160156 9.980469-9.480469.292968-5.5-3.949219-10.222656-9.457032-10.511719zm0 0"/><path d="m324.199219 103.433594c-8.511719-4.058594-19.273438-6.492188-28.695313-6.492188-9.167968 0-17.625 2.914063-26.25 6.03125-5.183594 1.871094-7.871094 7.621094-6 12.800782 1.429688 3.949218 5.207032 6.601562 9.410156 6.601562 4.078126 0 7.695313-2.207031 11.433594-3.523438 3.652344-1.28125 7.535156-1.90625 11.40625-1.90625 4.664063 0 9.242188 1.101563 13.667969 2.5 3.761719 1.1875 7.816406 3.558594 11.832031 3.558594 4.308594 0 8.117188-2.75 9.488282-6.839844 1.84375-5.503906-1.429688-10.410156-6.292969-12.730468zm0 0"/><path d="m235.042969 115.984375c-1.160157 0-2.300781.199219-3.402344.597656-5.1875 1.882813-7.878906 7.621094-6 12.8125 1.429687 3.9375 5.210937 6.589844 9.402344 6.601563 1.160156 0 2.300781-.210938 3.398437-.601563 2.519532-.910156 4.53125-2.742187 5.660156-5.160156 1.128907-2.421875 1.25-5.140625.339844-7.648437-1.421875-3.953126-5.199218-6.601563-9.398437-6.601563zm0 0"/></svg>