<svg height="512pt" viewBox="-44 0 512 512.04217" width="512pt" xmlns="http://www.w3.org/2000/svg"><g fill="#464f5d"><path d="m17.675781 459.078125c-3.058593-.003906-5.898437-1.585937-7.503906-4.1875-1.609375-2.601563-1.753906-5.851563-.386719-8.585937l17.65625-35.3125c2.175782-4.363282 7.480469-6.132813 11.84375-3.953126 4.363282 2.179688 6.136719 7.480469 3.957032 11.84375l-17.65625 35.3125c-1.496094 2.996094-4.5625 4.886719-7.910157 4.882813zm0 0"/><path d="m52.988281 476.730469c-.726562.003906-1.453125-.085938-2.15625-.261719-4.726562-1.1875-7.601562-5.980469-6.417969-10.710938l8.828126-35.308593c1.210937-4.695313 5.988281-7.535157 10.691406-6.355469 4.707031 1.175781 7.578125 5.929688 6.433594 10.644531l-8.828126 35.3125c-.980468 3.921875-4.507812 6.675781-8.550781 6.679688zm0 0"/><path d="m405.65625 459.078125c-3.359375.015625-6.441406-1.875-7.945312-4.882813l-17.652344-35.3125c-1.441406-2.824218-1.253906-6.203124.484375-8.851562 1.742187-2.648438 4.769531-4.164062 7.933593-3.964844 3.164063.199219 5.980469 2.078125 7.375 4.925782l17.652344 35.3125c1.363282 2.726562 1.222656 5.964843-.375 8.566406-1.59375 2.597656-4.421875 4.1875-7.472656 4.207031zm0 0"/><path d="m370.328125 476.730469c-4.042969-.003907-7.570313-2.757813-8.550781-6.679688l-8.828125-35.3125c-1.144531-4.714843 1.726562-9.46875 6.433593-10.644531 4.703126-1.179688 9.476563 1.660156 10.691407 6.355469l8.828125 35.308593c1.183594 4.730469-1.691406 9.523438-6.417969 10.710938-.703125.175781-1.429687.265625-2.15625.261719zm0 0"/></g><path d="m308.988281 381.921875v112.464844c-.03125 9.738281-7.917969 17.625-17.65625 17.65625h-35.3125c-9.738281-.03125-17.625-7.917969-17.652343-17.65625v-79.449219h-52.964844v79.449219c-.03125 9.738281-7.917969 17.625-17.65625 17.65625h-35.3125c-9.738282-.03125-17.625-7.917969-17.652344-17.65625v-112.464844zm0 0" fill="#556080"/><path d="m325.230469 432.59375h9.796875c48.753906 0 88.277344-39.523438 88.277344-88.277344v-105.929687c0-58.332031-47.160157-105.6875-105.492188-105.929688h-212.300781c-58.332031.242188-105.4921878 47.597657-105.4921878 105.929688v105.929687c0 48.753906 39.5234378 88.277344 88.2773438 88.277344zm0 0" fill="#556080"/><path d="m211.882812 467.902344c12.234376-6.117188 24.46875-24.953125 30.828126-35.933594.851562-1.40625 2.417968-2.222656 4.058593-2.117188 1.644531.109376 3.089844 1.121094 3.753907 2.628907 4.460937 10.207031 10.230468 19.789062 17.160156 28.511719.988281 1.25 2.578125 1.855468 4.148437 1.585937 1.570313-.269531 2.867188-1.375 3.378907-2.882813 4.882812-11.453124 11.757812-21.945312 20.304687-30.996093 1.03125-1.140625 2.578125-1.667969 4.09375-1.382813 1.511719.28125 2.765625 1.332032 3.3125 2.769532 2.332031 6.003906 4.015625 12.238281 5.023437 18.601562.277344 1.800781 1.632813 3.246094 3.414063 3.636719s3.621094-.351563 4.628906-1.871094c16.769531-24.363281 24.714844-66.015625 27.300781-82 .242188-1.5 1.234376-2.769531 2.628907-3.367187 1.398437-.59375 3.003906-.429688 4.25.4375 8.4375 6.390624 15.976562 13.890624 22.414062 22.296874 1.136719 1.519532 3.121094 2.140626 4.925781 1.539063 1.800782-.601563 3.015626-2.289063 3.015626-4.1875 1.730468-55.226563-28.898438-117.273437-40.640626-138.839844-.867187-1.578125-.691406-3.53125.453126-4.925781 1.140624-1.394531 3.019531-1.953125 4.738281-1.414062 5.53125 1.847656 10.761719 4.496093 15.527343 7.859374 1.542969 1.082032 3.609376 1.066407 5.132813-.046874 1.527344-1.109376 2.179687-3.066407 1.621094-4.871094-7.609375-29.496094-24.957031-55.558594-49.230469-73.957032-1.410156-1.09375-2.023438-2.929687-1.554688-4.648437.46875-1.722656 1.929688-2.992187 3.699219-3.21875 6.320313-.824219 12.394531-2.980469 17.820313-6.328125 1.3125-.84375 2.078125-2.320312 2.019531-3.878906s-.9375-2.972656-2.308594-3.714844c-2.523437-1.304688-4.972656-2.753906-7.328125-4.339844-13.628906-9.535156-24.277344-22.734375-30.71875-38.066406-3.804687-9.085938-6.609375-18.554688-8.359375-28.246094-1.027343-8.660156-2.820312-17.207031-5.359375-25.550781-11.621094-30.285156-40.492187-50.464844-72.929687-50.9726562-32.4375-.5117188-61.925781 18.7539062-74.492188 48.6601562-3.160156 9.734375-5.316406 19.765625-6.433593 29.9375-3.890626 23.773437-16.113282 45.390625-34.480469 60.980469-3.671875 2.898437-7.613281 5.441406-11.769531 7.589844-1.371094.742187-2.25 2.15625-2.308594 3.714843-.058594 1.558594.707031 3.03125 2.019531 3.878907 5.425781 3.34375 11.5 5.503906 17.820313 6.328124 1.769531.226563 3.230468 1.496094 3.699218 3.214844.46875 1.722656-.144531 3.558594-1.550781 4.652344-24.277344 18.398438-41.625 44.460938-49.234375 73.957031-.558594 1.800781.09375 3.761719 1.621094 4.871094 1.523437 1.113281 3.589844 1.128906 5.132812.042969 4.765625-3.359375 9.996094-6.007813 15.527344-7.855469 1.722656-.539063 3.597656.019531 4.738281 1.414063 1.144531 1.394531 1.324219 3.34375.453125 4.925781-11.707031 21.574219-42.335937 83.621093-40.570312 138.855469 0 1.902343 1.214844 3.585937 3.015625 4.1875 1.804687.601562 3.789062-.019532 4.929687-1.539063 6.433594-8.40625 13.972656-15.90625 22.410156-22.296875 1.25-.867188 2.851563-1.03125 4.25-.4375 1.398438.597656 2.390626 1.867188 2.628907 3.367188 2.566406 15.988281 10.59375 57.636718 27.304687 82 1.003906 1.519531 2.84375 2.265624 4.625 1.875 1.78125-.390626 3.136719-1.839844 3.414063-3.640626 1.007812-6.359374 2.691406-12.597656 5.023437-18.601562.546875-1.4375 1.800782-2.484375 3.316406-2.769531 1.511719-.28125 3.0625.242187 4.089844 1.386719 8.546875 9.046874 15.421875 19.542968 20.304688 30.992187.515625 1.507813 1.808594 2.613281 3.378906 2.882813 1.570312.273437 3.160156-.335938 4.152344-1.585938 6.925781-8.722656 12.695312-18.304688 17.160156-28.511719.660156-1.507812 2.109375-2.519531 3.75-2.625 1.640625-.109375 3.207031.707031 4.0625 2.113281 6.320312 10.972657 18.554688 29.808594 30.789062 35.925782zm0 0" fill="#8697cb"/><path d="m185.402344 97.144531c-4.878906 0-8.828125-3.949219-8.828125-8.828125v-17.652344c0-4.875 3.949219-8.828124 8.828125-8.828124 4.875 0 8.824218 3.953124 8.824218 8.828124v17.652344c0 4.878906-3.949218 8.828125-8.824218 8.828125zm0 0" fill="#2c2f38"/><path d="m238.367188 97.144531c-4.875 0-8.828126-3.949219-8.828126-8.828125v-17.652344c0-4.875 3.953126-8.828124 8.828126-8.828124s8.828124 3.953124 8.828124 8.828124v17.652344c0 4.878906-3.953124 8.828125-8.828124 8.828125zm0 0" fill="#2c2f38"/><path d="m194.226562 70.664062h-17.652343c-4.875 0-8.828125-3.953124-8.828125-8.828124s3.953125-8.828126 8.828125-8.828126h17.652343c4.875 0 8.828126 3.953126 8.828126 8.828126s-3.953126 8.828124-8.828126 8.828124zm0 0" fill="#556080"/><path d="m247.195312 70.664062h-17.65625c-4.875 0-8.828124-3.953124-8.828124-8.828124s3.953124-8.828126 8.828124-8.828126h17.65625c4.875 0 8.824219 3.953126 8.824219 8.828126s-3.949219 8.828124-8.824219 8.828124zm0 0" fill="#556080"/><path d="m194.226562 150.109375c-4.875 0-8.824218-3.949219-8.824218-8.824219v-17.65625c0-4.875 3.949218-8.828125 8.824218-8.828125s8.828126 3.953125 8.828126 8.828125v17.65625c0 4.875-3.953126 8.824219-8.828126 8.824219zm0 0" fill="#f5efca"/><path d="m229.539062 150.109375c-4.875 0-8.828124-3.949219-8.828124-8.824219v-17.65625c0-4.875 3.953124-8.828125 8.828124-8.828125s8.828126 3.953125 8.828126 8.828125v17.65625c0 4.875-3.953126 8.824219-8.828126 8.824219zm0 0" fill="#f5efca"/><path d="m158.917969 494.386719v17.65625h-17.65625v-17.65625c0-4.875 3.953125-8.828125 8.828125-8.828125s8.828125 3.953125 8.828125 8.828125zm0 0" fill="#464f5d"/><path d="m282.503906 494.386719v17.65625h-17.65625v-17.65625c0-4.875 3.953125-8.828125 8.828125-8.828125s8.828125 3.953125 8.828125 8.828125zm0 0" fill="#464f5d"/><path d="m262.050781 199.546875c16.203125 18.273437 26.421875 41.070313 29.28125 65.324219-8.308593-4.320313-17.246093-7.300782-26.484375-8.828125 10.566406 22.117187 16.570313 46.132812 17.65625 70.621093-8.308594-4.320312-17.246094-7.300781-26.484375-8.828124 0 0 8.828125 44.136718-26.480469 61.792968 0 0-8.828124-26.484375-17.65625-26.484375-8.828124 0-17.65625 26.484375-17.65625 26.484375-35.308593-17.65625-26.480468-61.792968-26.480468-61.792968-9.238282 1.527343-18.175782 4.507812-26.484375 8.828124 1.085937-24.488281 7.089843-48.503906 17.65625-70.621093-9.238281 1.527343-18.175781 4.507812-26.484375 8.828125 2.859375-24.253906 13.078125-47.050782 29.28125-65.324219 3.328125-3.40625 7.890625-5.316406 12.652344-5.296875h75.035156c4.757812-.019531 9.320312 1.890625 12.648437 5.296875zm0 0" fill="#556080"/><path d="m247.195312 150.109375h-70.621093c-4.875 0-8.828125-3.949219-8.828125-8.824219s3.953125-8.828125 8.828125-8.828125h70.621093c4.875 0 8.824219 3.953125 8.824219 8.828125s-3.949219 8.824219-8.824219 8.824219zm0 0" fill="#2c2f38"/></svg>