<?xml version="1.0" encoding="iso-8859-1"?>
<!-- Generator: Adobe Illustrator 18.1.1, SVG Export Plug-In . SVG Version: 6.00 Build 0)  -->
<svg version="1.1" id="Capa_1" xmlns="http://www.w3.org/2000/svg" xmlns:xlink="http://www.w3.org/1999/xlink" x="0px" y="0px"
	 viewBox="0 0 56.821 56.821" style="enable-background:new 0 0 56.821 56.821;" xml:space="preserve">
<g>
	<g>
		<path style="fill:#010002;" d="M33.824,25.852c-3.307-1.56-6.611-3.119-9.917-4.679c-0.055-0.042-0.108-0.084-0.166-0.123
			c-0.682-0.451-1.402-0.623-2.1-0.579c-0.17-0.046-0.346-0.079-0.531-0.079H9.882c-1.128,0-2.042,0.914-2.042,2.042
			c0,1.127,0.914,2.042,2.042,2.042h5.121L0.001,34.79l5.612,3c-1.632,1.777-3.294,3.529-4.974,5.264
			c-1.866,1.928,0.766,5.221,2.654,3.27c2.071-2.141,4.122-4.301,6.13-6.5l6.438,3.438l0.707-3.569
			c1.818,2.002,2.945,4.479,3.581,7.53c0.553,2.658,4.686,1.845,4.132-0.815c-0.997-4.789-3.116-8.732-6.738-11.572
			c0.168-0.154,0.327-0.324,0.475-0.506c2.236-2.76,4.47-5.521,6.705-8.279c2.587,1.221,5.175,2.441,7.763,3.662
			C34.871,30.835,36.178,26.962,33.824,25.852z"/>
		<path style="fill:#010002;" d="M23.805,19.747c2.016,0.261,3.863-1.161,4.124-3.177l-7.3-0.946
			C20.367,17.64,21.789,19.486,23.805,19.747z"/>
		<path style="fill:#010002;" d="M38.471,27.234c-0.287-1.164-1.336-2.293-2.588-2.517v5.343c1.252,0.225,2.301-0.863,2.588-2.027
			h18.35v-0.799H38.471z"/>
		<path style="fill:#010002;" d="M17.922,9.397c0.065,0.161,0.12,0.309,0.246,0.434c0.125,0.125,0.293,0.169,0.474,0.174
			c-0.121,0.357-0.135,0.722,0.15,0.976s0.613,0.185,0.911,0c0.07,0.324,0.18,0.635,0.369,0.882c0.055,0.07,0.116,0.128,0.179,0.177
			c0.048,0.187,0.084,0.376,0.115,0.565c-0.427,0.161-0.756,0.54-0.819,1.022c-0.093,0.699,0.399,1.339,1.099,1.432l8.325,1.098
			c0.697,0.092,6.194-2.808,2.588-4.033c-1.405-0.478-3.051-0.412-4.619-0.187c-0.28-0.265-0.655-0.43-1.07-0.43h-2.676
			c-0.757,0-1.387,0.541-1.529,1.257c-0.1-0.013-0.193-0.032-0.271-0.062c-0.036-0.282-0.086-0.561-0.156-0.835
			c0.01-0.011,0.018-0.021,0.027-0.035c0.259-0.377,0.167-0.973,0.061-1.38c-0.174-0.67-0.626-1.257-1.151-1.69
			c-0.1-0.083-0.207-0.117-0.31-0.12c-0.261-0.195-0.507-0.412-0.806-0.546c-0.402-0.181-0.822-0.151-1.239-0.049
			c-0.297,0.073-0.467,0.499-0.274,0.748C17.696,8.985,17.844,9.2,17.922,9.397z"/>
	</g>
</g>
<g>
</g>
<g>
</g>
<g>
</g>
<g>
</g>
<g>
</g>
<g>
</g>
<g>
</g>
<g>
</g>
<g>
</g>
<g>
</g>
<g>
</g>
<g>
</g>
<g>
</g>
<g>
</g>
<g>
</g>
</svg>
