<?xml version="1.0" encoding="iso-8859-1"?>
<!-- Generator: Adobe Illustrator 19.0.0, SVG Export Plug-In . SVG Version: 6.00 Build 0)  -->
<svg version="1.1" id="Layer_1" xmlns="http://www.w3.org/2000/svg" xmlns:xlink="http://www.w3.org/1999/xlink" x="0px" y="0px"
	 viewBox="0 0 512 512" style="enable-background:new 0 0 512 512;" xml:space="preserve">
<path style="fill:#F7B239;" d="M313.833,502.576H198.167c17.768-65.517,20.909-131.035,9.437-196.552
	c-2.463-14.111-5.617-28.21-9.437-42.321v-0.013c1.809-1.634,3.493-37.119,5.039-39.004c6.496,8.721,16.888,14.375,28.612,14.375
	c9.336,0,17.831-3.594,24.189-9.474c6.346,5.881,14.853,9.474,24.189,9.474c11.711,0,22.103-5.655,28.599-14.375
	c1.546,1.885,3.229,37.383,5.039,39.016c-3.82,14.099-6.974,28.21-9.424,42.309C292.924,371.529,296.066,437.046,313.833,502.576z"
	/>
<path style="fill:#E09B2D;" d="M308.795,248.486c-6.496,8.721-16.888,4.619-28.599,4.619c-9.336,0-17.843-3.594-24.189-9.474
	c-4.673,4.321-10.502,7.402-16.97,8.734l0,0c-1.14,0.235-2.3,0.415-3.477,0.54c-0.033,0.003-0.064,0.008-0.097,0.011
	c-0.528,0.054-1.059,0.093-1.593,0.124c-0.079,0.004-0.157,0.013-0.236,0.018c-0.602,0.03-1.208,0.048-1.818,0.048
	c-3.664,0-7.198-0.552-10.522-1.577c-1.331-0.411-2.627-0.896-3.885-1.453c-1.887-0.834-3.689-1.828-5.387-2.964
	c-1.132-0.758-2.219-1.577-3.255-2.455c-2.071-1.757-3.938-3.745-5.563-5.925c-1.546,1.885-3.229,23.326-5.039,24.96v0.013
	c0.863,3.188,1.681,6.375,2.475,9.561c0.191,0.767,0.378,1.533,0.565,2.3c0.662,2.714,1.302,5.428,1.915,8.141
	c0.118,0.525,0.244,1.051,0.361,1.576c0.704,3.168,1.371,6.334,2.005,9.502c0.132,0.66,0.256,1.321,0.386,1.982
	c0.533,2.719,1.042,5.438,1.524,8.159c11.697,65.885,8.631,131.765-9.231,197.653h40.225c5.186-62.819,6.261-125.63,3.261-188.446
	c5.423-1.557,10.32-4.362,14.354-8.094c6.346,5.881,14.853,9.474,24.189,9.474c9.349,0,17.856-3.606,24.214-9.5
	c2.45-14.099,5.604-28.21,9.424-42.309C312.024,262.069,310.34,250.371,308.795,248.486z"/>
<path style="fill:#E6E6E6;" d="M481.824,152.233c0,39.029-31.64,70.669-70.669,70.669c-5.29,0-10.417-0.591-15.368-1.696
	c0.239,1.973,0.377,3.958,0.377,5.981c0,27.205-22.065,49.27-49.27,49.27c-12.729,0-24.315-4.838-33.06-12.754
	c-1.809-1.634-3.493-3.405-5.039-5.29c-6.496,8.721-16.888,14.375-28.599,14.375c-9.336,0-17.843-3.594-24.189-9.474
	c-4.021,3.719-8.884,6.522-14.287,8.067c-3.141,0.917-6.471,1.407-9.902,1.407c-11.724,0-22.116-5.655-28.612-14.375
	c-1.546,1.885-3.229,3.644-5.039,5.278v0.013c-0.993,0.905-2.036,1.772-3.104,2.589c-0.013,0.013-0.013,0.013-0.025,0.025
	c-0.39,0.289-0.779,0.591-1.181,0.867c-0.176,0.126-0.352,0.251-0.528,0.377c-0.415,0.289-0.829,0.578-1.257,0.842
	c-0.113,0.088-0.226,0.163-0.339,0.226c-0.415,0.276-0.829,0.528-1.244,0.779c-0.214,0.126-0.427,0.251-0.628,0.377
	c-0.415,0.239-0.842,0.477-1.269,0.704c-0.138,0.088-0.276,0.163-0.415,0.226c-0.452,0.251-0.905,0.478-1.37,0.704
	c-0.126,0.063-0.239,0.126-0.364,0.176c-0.503,0.251-1.018,0.49-1.533,0.716c-0.603,0.264-1.219,0.515-1.847,0.767
	c-0.616,0.239-1.244,0.478-1.872,0.691c-0.063,0.025-0.113,0.038-0.176,0.063c-0.54,0.176-1.093,0.352-1.646,0.528
	c-0.716,0.214-1.432,0.415-2.174,0.603c-1.156,0.289-2.325,0.54-3.506,0.741c-0.591,0.113-1.194,0.201-1.797,0.276
	c-0.302,0.05-0.603,0.101-0.917,0.126c-0.616,0.075-1.244,0.138-1.872,0.189c-1.319,0.113-2.651,0.163-3.996,0.163
	c-27.205,0-49.257-22.065-49.257-49.27c0-2.023,0.138-4.008,0.377-5.981c-4.951,1.106-10.09,1.696-15.368,1.696
	c-39.041,0-70.682-31.64-70.682-70.669c0-29.655,18.258-55.012,44.131-65.517c-1.52-4.335-2.362-9.01-2.362-13.872
	c0-23.071,18.698-41.768,41.756-41.768c8.607,0,16.612,2.601,23.259,7.062c0.251-0.364,0.503-0.729,0.767-1.093
	c2.827-3.996,5.969-7.728,9.399-11.171c2.664-2.689,5.504-5.202,8.494-7.514c10.643-8.268,23.246-14.124,36.993-16.763
	C198.003,0.54,203.57,0,209.262,0c12.076,0,23.586,2.463,34.053,6.886c4.436,1.872,8.67,4.109,12.691,6.647
	C269.527,4.976,285.561,0,302.751,0c30.019,0,56.508,15.116,72.29,38.137c6.647-4.461,14.652-7.062,23.259-7.062
	c23.071,0,41.768,18.698,41.768,41.768c0,4.863-0.842,9.537-2.375,13.872c7.25,2.94,13.898,7.062,19.715,12.101
	C472.362,111.772,481.824,130.884,481.824,152.233z"/>
<g>
	<path style="fill:#F95428;" d="M190.392,329.182c0,0,0.197,0.425,0.568,1.221c0.339,0.803,0.891,1.97,1.488,3.473
		c0.63,1.493,1.301,3.336,2.01,5.486c0.371,1.072,0.716,2.222,1.107,3.433c0.376,1.211,0.694,2.493,1.068,3.83
		c0.359,1.337,0.711,2.737,1.059,4.189c0.334,1.455,0.625,2.965,0.954,4.52c0.645,3.109,1.121,6.415,1.593,9.843
		c0.217,1.715,0.386,3.464,0.558,5.236c0.2,1.771,0.3,3.569,0.392,5.382c0.265,3.625,0.239,7.317,0.281,11.006
		c-0.128,3.688-0.185,7.379-0.535,10.996c-0.133,1.811-0.271,3.606-0.518,5.371c-0.219,1.767-0.417,3.512-0.677,5.222
		c-0.56,3.415-1.106,6.71-1.827,9.802c-0.363,1.543-0.717,3.043-1.059,4.496c-0.385,1.444-0.772,2.834-1.16,4.163
		c-0.407,1.327-0.758,2.602-1.161,3.801c-0.42,1.196-0.794,2.333-1.187,3.393c-0.76,2.124-1.478,3.956-2.146,5.446
		c-0.636,1.497-1.215,2.651-1.574,3.444c-0.374,0.79-0.598,1.205-0.598,1.205s-0.039-0.469-0.111-1.346
		c-0.043-0.871-0.156-2.158-0.199-3.767c-0.044-1.605-0.098-3.552-0.161-5.786c-0.021-2.21-0.045-4.705-0.072-7.425
		c0.009-2.695,0.019-5.614,0.029-8.702c0.075-3.07,0.016-6.31,0.119-9.639c-0.019-1.67,0.028-3.361,0.058-5.073
		c0.023-1.71,0.045-3.442,0.068-5.187c0.049-3.484,0.099-7.024,0.15-10.565c0.038-3.54,0.075-7.081,0.112-10.565
		c0.02-1.745,0.04-3.477,0.06-5.187c0.005-1.711,0.009-3.403,0.064-5.073c-0.02-3.33,0.109-6.569,0.113-9.64
		c0.062-3.087,0.121-6.006,0.175-8.7c0.089-2.714,0.171-5.201,0.244-7.406c0.112-2.235,0.209-4.186,0.289-5.79
		c0.077-1.616,0.219-2.9,0.28-3.768C190.343,329.649,190.392,329.182,190.392,329.182z"/>
	<path style="fill:#F95428;" d="M322.957,444.146c0,0-0.207-0.42-0.596-1.209c-0.358-0.794-0.936-1.949-1.568-3.438
		c-0.663-1.478-1.378-3.304-2.137-5.437c-0.777-2.127-1.588-4.553-2.345-7.21c-0.392-1.329-0.773-2.72-1.157-4.163
		c-0.367-1.445-0.694-2.95-1.058-4.496c-0.723-3.091-1.269-6.387-1.828-9.801c-0.258-1.71-0.467-3.454-0.68-5.221
		c-0.24-1.765-0.39-3.56-0.521-5.371c-0.351-3.618-0.415-7.308-0.544-10.995c0.041-3.691,0.006-7.381,0.273-11.006
		c0.093-1.813,0.182-3.611,0.388-5.382c0.176-1.772,0.335-3.521,0.554-5.236c0.474-3.429,0.949-6.735,1.592-9.844
		c0.328-1.551,0.646-3.06,0.954-4.52c0.348-1.453,0.704-2.852,1.061-4.189c0.376-1.336,0.697-2.619,1.071-3.827
		c0.392-1.206,0.739-2.352,1.108-3.42c0.711-2.14,1.385-3.99,2.018-5.495c0.601-1.512,1.154-2.679,1.494-3.481
		c0.356-0.799,0.569-1.219,0.569-1.219s0.049,0.467,0.142,1.343c0.063,0.87,0.206,2.152,0.286,3.761
		c0.082,1.602,0.182,3.549,0.297,5.781c0.073,2.209,0.156,4.702,0.246,7.421c0.055,2.694,0.114,5.613,0.177,8.699
		c0.003,3.071,0.131,6.309,0.111,9.639c0.058,1.669,0.052,3.36,0.062,5.073c0.019,1.71,0.038,3.442,0.057,5.187
		c0.034,3.484,0.068,7.025,0.103,10.565c0.046,3.54,0.094,7.081,0.139,10.565c0.021,1.745,0.043,3.477,0.063,5.187
		c0.035,1.711,0.07,3.403,0.054,5.073c0.104,3.329,0.043,6.571,0.116,9.64c0.01,3.089,0.02,6.008,0.029,8.703
		c-0.026,2.715-0.05,5.205-0.072,7.41c-0.06,2.238-0.112,4.189-0.155,5.795c-0.039,1.617-0.152,2.904-0.194,3.773
		C322.995,443.678,322.957,444.146,322.957,444.146z"/>
</g>
<path style="fill:#666666;" d="M406.995,512h-301.99c-5.205,0-9.424-4.22-9.424-9.424c0-5.205,4.22-9.424,9.424-9.424h301.99
	c5.205,0,9.424,4.22,9.424,9.424C416.419,507.781,412.2,512,406.995,512z"/>
<g>
	<path style="fill:#CCCCCC;" d="M335.107,184.728l2.816-0.485c0.93-0.183,1.9-0.234,2.796-0.524l2.697-0.73
		c0.445-0.121,0.891-0.219,1.332-0.348l1.311-0.476l2.6-0.942c0.861-0.314,1.671-0.778,2.502-1.155
		c0.818-0.412,1.66-0.754,2.445-1.218l2.342-1.388l1.162-0.687l1.093-0.803l2.181-1.574c0.72-0.529,1.36-1.169,2.039-1.742
		c0.653-0.607,1.373-1.128,1.967-1.797l1.835-1.921c0.299-0.324,0.623-0.623,0.902-0.965l0.817-1.042l1.63-2.066
		c0.504-0.716,0.964-1.464,1.448-2.188c1.969-2.884,3.353-6.089,4.646-9.26l0.758-2.462c0.232-0.823,0.557-1.616,0.68-2.468
		c0.286-1.688,0.795-3.315,0.883-5.025l0.275-2.527c0.065-0.843,0.02-1.696,0.039-2.541l0.01-1.267l0.006-0.632l0.004-0.157
		l0.001-0.079l0.001-0.039c-0.001-0.072,0.013,0.483,0.005,0.227l-0.029-0.354l-0.231-2.829l-0.116-1.414
		c-0.02-0.506-0.147-0.807-0.212-1.219l-0.454-2.308c-0.098-0.754-0.392-1.573-0.62-2.37l-0.685-2.404l-0.917-2.323
		c-0.323-0.765-0.557-1.568-0.979-2.289c-0.79-1.463-1.436-2.997-2.409-4.35l-1.321-2.103l-1.52-1.964
		c-0.947-1.362-2.165-2.498-3.272-3.722c-0.533-0.635-1.204-1.13-1.812-1.688l-1.852-1.641l-1.993-1.466
		c-0.656-0.499-1.313-0.998-2.042-1.39l-2.117-1.274c-0.686-0.461-1.475-0.729-2.205-1.107c-0.748-0.341-1.474-0.734-2.235-1.043
		l-2.313-0.854l-1.155-0.436c-0.387-0.139-0.794-0.214-1.19-0.325l-2.387-0.628c-0.785-0.259-1.62-0.29-2.428-0.445l-2.441-0.39
		c-1.64-0.049-3.32-0.253-4.927-0.268c-0.45,0.006-0.998-0.004-1.366,0.018l-1.151,0.05c-0.8,0.063-1.645,0.107-2.459,0.219
		c-1.646,0.178-3.275,0.483-4.888,0.853c-1.616,0.364-3.216,0.818-4.777,1.383c-3.138,1.101-6.132,2.611-8.979,4.378l-0.367,0.227
		c-2.343,1.455-5.387,0.865-7.056-1.252c-1.811-2.315-3.975-4.37-6.403-6.083c-2.421-1.721-5.126-3.082-7.993-3.996
		c-1.424-0.501-2.908-0.813-4.403-1.097c-0.754-0.095-1.507-0.239-2.272-0.28l-0.573-0.049l-0.286-0.025l-0.143-0.013
		c0.092-0.003-0.231,0.004,0.202-0.006h-0.02h-0.041h-0.082h-1.314l-1.316-0.009l-0.657-0.005c-0.211,0.003-0.364,0.033-0.549,0.047
		l-2.152,0.185c-1.487,0.27-3.067,0.481-4.545,0.976c-1.532,0.364-2.968,1.01-4.444,1.596l-2.121,1.088
		c-0.725,0.342-1.361,0.829-2.053,1.236c-0.338,0.216-0.687,0.42-1.02,0.648l-0.954,0.739c-0.623,0.509-1.322,0.95-1.884,1.534
		l-1.798,1.664l-1.641,1.836c-0.583,0.596-0.993,1.312-1.519,1.959l-0.754,0.999l-0.65,1.067c-0.411,0.725-0.93,1.41-1.263,2.18
		l-1.103,2.289c-0.568,1.588-1.275,3.175-1.655,4.86c-0.527,1.664-0.706,3.39-1.044,5.136c-0.119-1.747-0.325-3.537-0.167-5.32
		c0.006-1.804,0.337-3.579,0.646-5.374l0.701-2.644c0.206-0.9,0.606-1.725,0.905-2.599l0.489-1.299l0.608-1.245
		c0.426-0.821,0.783-1.696,1.306-2.464l1.503-2.371l1.724-2.23c0.558-0.768,1.263-1.397,1.904-2.097l0.989-1.027
		c0.347-0.324,0.714-0.626,1.072-0.939c0.735-0.602,1.417-1.289,2.21-1.823l2.367-1.64c1.664-0.952,3.331-1.959,5.139-2.67
		c0.888-0.395,1.784-0.782,2.723-1.043c0.937-0.283,1.843-0.606,2.821-0.848l3.038-0.607c0.248-0.044,0.525-0.106,0.75-0.134
		l0.653-0.07l1.308-0.142l1.308-0.131l0.082-0.009l0.041-0.004l0.264-0.009l0.185-0.003l0.369-0.006l0.74-0.011
		c0.988-0.036,1.975,0.038,2.967,0.074c1.974,0.163,3.961,0.393,5.906,0.858c3.898,0.881,7.67,2.411,11.139,4.466
		c1.755,1.001,3.375,2.223,4.946,3.498c1.559,1.294,4.085-1.331,8.018-2.92c3.926-1.606,8.06-2.749,12.275-3.335
		c1.057-0.17,2.1-0.261,3.182-0.369l1.681-0.114c0.576-0.039,0.974-0.038,1.469-0.058c2.174-0.034,4.269,0.104,6.407,0.2
		l3.168,0.457c1.05,0.185,2.124,0.254,3.15,0.557l3.107,0.784c0.515,0.141,1.04,0.246,1.546,0.418l1.509,0.539l3.013,1.096
		c0.986,0.407,1.933,0.911,2.898,1.366c0.946,0.494,1.95,0.882,2.844,1.47l2.732,1.672c0.929,0.53,1.781,1.172,2.627,1.821
		l2.551,1.93c0.81,0.691,1.585,1.426,2.366,2.15c0.766,0.739,1.592,1.419,2.272,2.243c1.402,1.603,2.89,3.133,4.084,4.902
		l1.871,2.583l1.625,2.744c1.137,1.799,1.923,3.787,2.822,5.705c0.477,0.949,0.759,1.979,1.122,2.974l1.017,3.009l0.728,3.09
		c0.225,1.038,0.5,2.029,0.606,3.163c0.25,2.151,0.638,4.558,0.579,6.309l0.055,2.837l0.006,0.354l0.005,0.314l-0.004,0.049
		l-0.008,0.098l-0.015,0.196l-0.065,0.784l-0.133,1.566c-0.106,1.042-0.151,2.087-0.312,3.119l-0.581,3.081
		c-0.31,2.065-1.023,4.042-1.606,6.033c-0.264,1.005-0.731,1.944-1.111,2.908l-1.208,2.86c-1.88,3.686-4.01,7.232-6.674,10.343
		c-0.662,0.779-1.289,1.583-1.982,2.33l-2.185,2.132l-1.091,1.058c-0.369,0.344-0.783,0.646-1.172,0.969l-2.364,1.894
		c-0.777,0.638-1.676,1.125-2.504,1.688c-0.854,0.529-1.665,1.118-2.55,1.59l-2.668,1.37l-1.332,0.67l-1.392,0.545l-2.769,1.073
		c-0.92,0.354-1.905,0.542-2.847,0.817c-0.958,0.234-1.885,0.548-2.854,0.707l-2.894,0.47l-1.436,0.23
		c-0.488,0.046-0.981,0.068-1.469,0.097l-2.911,0.127C338.899,185.056,337.011,184.846,335.107,184.728z"/>
	<path style="fill:#CCCCCC;" d="M153.722,192.544c0,0-0.298-0.121-0.824-0.374c-0.261-0.129-0.583-0.288-0.963-0.475
		c-0.187-0.097-0.396-0.187-0.607-0.309c-0.205-0.142-0.422-0.292-0.652-0.451c-0.466-0.322-0.984-0.707-1.534-1.152
		c-0.51-0.451-1.029-0.976-1.61-1.544c-0.57-0.576-1.05-1.274-1.634-1.994c-0.559-0.733-0.996-1.585-1.537-2.464
		c-0.455-0.906-0.887-1.887-1.284-2.933c-0.338-1.056-0.71-2.171-0.906-3.354c-0.508-2.359-0.564-4.953-0.273-7.625
		c0.101-0.662,0.188-1.339,0.315-2.016c0.131-0.675,0.347-1.332,0.526-2.008c0.333-1.362,0.926-2.661,1.503-3.975
		c1.262-2.587,3.008-4.975,5.033-7.078l0.388-0.363l0.162-0.145l0.324-0.288l0.647-0.576c0.246-0.207,0.363-0.351,0.716-0.606
		l0.975-0.717c1.329-1.024,2.594-1.67,3.858-2.342c1.313-0.576,2.61-1.177,3.976-1.505c0.676-0.18,1.334-0.395,2.009-0.525
		c0.674-0.132,1.352-0.22,2.014-0.319c2.673-0.292,5.268-0.236,7.627,0.269c1.184,0.196,2.298,0.572,3.355,0.905
		c1.045,0.396,2.027,0.834,2.935,1.284c0.881,0.54,1.732,0.981,2.465,1.537c0.721,0.583,1.419,1.066,1.994,1.635
		c0.568,0.582,1.094,1.101,1.546,1.612c0.43,0.542,0.8,1.047,1.118,1.51c0.329,0.447,0.593,0.866,0.779,1.274
		c0.195,0.386,0.359,0.714,0.494,0.98c0.258,0.529,0.369,0.822,0.369,0.822s-0.3-0.103-0.863-0.293
		c-0.553-0.187-1.304-0.515-2.311-0.775c-0.48-0.139-1.012-0.294-1.59-0.462c-0.599-0.109-1.208-0.261-1.852-0.396
		c-0.651-0.123-1.35-0.2-2.051-0.304c-0.707-0.089-1.461-0.108-2.207-0.167c-1.524-0.013-3.105,0.011-4.716,0.286
		c-1.607,0.178-3.221,0.671-4.795,1.189c-1.582,0.549-3.074,1.352-4.517,2.208c-0.343,0.249-0.696,0.476-1.048,0.709
		c-0.39,0.231-0.56,0.459-0.866,0.666l-0.417,0.307c-0.122,0.074-0.398,0.358-0.592,0.525l-0.638,0.587l-0.319,0.293l-0.16,0.147
		l-0.08,0.073l-0.04,0.036l-0.02,0.018c0.095-0.09-0.241,0.229,0.209-0.199c-1.17,1.24-2.264,2.538-3.17,3.963
		c-0.867,1.44-1.656,2.938-2.215,4.517c-0.516,1.576-1.013,3.19-1.191,4.798c-0.273,1.611-0.297,3.194-0.281,4.718
		c0.06,0.746,0.083,1.498,0.171,2.208c0.106,0.701,0.186,1.4,0.308,2.051c0.137,0.643,0.289,1.253,0.4,1.852
		c0.16,0.565,0.307,1.086,0.44,1.554c0.239,0.981,0.635,1.807,0.812,2.345C153.631,192.234,153.722,192.544,153.722,192.544z"/>
	<path style="fill:#CCCCCC;" d="M457.409,98.816c-23.623,12.955-46.405,3.393-46.405,3.393c20.105,3.77,26.689-15.493,26.689-15.493
		C444.943,89.656,451.591,93.778,457.409,98.816z"/>
</g>
<g>
	<path style="fill:#F95428;" d="M256,345.451c0,0,0.124,0.461,0.359,1.327c0.204,0.865,0.554,2.134,0.896,3.748
		c0.712,3.229,1.59,7.843,2.369,13.38c0.784,5.536,1.471,11.996,1.931,18.918c0.134,1.73,0.22,3.49,0.307,5.27
		c0.095,1.781,0.182,3.582,0.224,5.399c0.141,3.634,0.16,7.325,0.196,11.016c-0.034,3.692-0.045,7.382-0.186,11.016
		c-0.043,1.817-0.117,3.619-0.219,5.399c-0.092,1.781-0.166,3.54-0.304,5.27c-0.457,6.921-1.145,13.38-1.93,18.918
		c-0.782,5.536-1.662,10.151-2.379,13.38c-0.344,1.615-0.696,2.884-0.901,3.748c-0.236,0.865-0.361,1.327-0.361,1.327
		s-0.126-0.461-0.361-1.327c-0.205-0.865-0.558-2.134-0.901-3.748c-0.716-3.229-1.597-7.844-2.379-13.38
		c-0.787-5.536-1.474-11.996-1.93-18.918c-0.137-1.73-0.211-3.489-0.304-5.27c-0.102-1.781-0.176-3.584-0.219-5.399
		c-0.141-3.634-0.152-7.325-0.186-11.016c0.035-3.692,0.055-7.382,0.196-11.016c0.041-1.817,0.127-3.619,0.224-5.399
		c0.087-1.781,0.171-3.54,0.307-5.27c0.46-6.921,1.147-13.38,1.931-18.918c0.779-5.536,1.656-10.151,2.369-13.38
		c0.342-1.615,0.694-2.884,0.896-3.748C255.876,345.912,256,345.451,256,345.451z"/>
</g>
<g>
	<path style="fill:#CCCCCC;" d="M133.784,85.413c-0.265,0.63-0.552,1.248-0.861,1.853c0.428-0.183,0.854-0.374,1.288-0.55
		C134.06,86.285,133.921,85.849,133.784,85.413z"/>
	<path style="fill:#CCCCCC;" d="M195.063,266.291c-0.013,0.013-0.013,0.013-0.025,0.025c-0.39,0.289-0.779,0.591-1.181,0.867
		c-0.176,0.126-0.352,0.251-0.528,0.377c-0.415,0.289-0.829,0.578-1.257,0.842c-0.113,0.088-0.226,0.163-0.339,0.226
		c-0.415,0.276-0.829,0.528-1.244,0.779c-0.214,0.126-0.427,0.251-0.628,0.377c-0.415,0.239-0.842,0.478-1.269,0.704
		c-0.138,0.088-0.276,0.163-0.415,0.226c-0.452,0.251-0.905,0.478-1.37,0.704c-0.126,0.063-0.239,0.126-0.364,0.176
		c-0.503,0.251-1.018,0.49-1.533,0.716c-0.603,0.264-1.219,0.515-1.847,0.767c-0.616,0.239-1.244,0.477-1.872,0.691
		c-0.063,0.025-0.113,0.038-0.176,0.063c-0.54,0.176-1.093,0.352-1.646,0.528c-0.716,0.214-1.432,0.415-2.174,0.603
		c-1.156,0.289-2.325,0.54-3.506,0.741c-0.591,0.113-1.194,0.201-1.797,0.276c-0.302,0.05-0.603,0.101-0.917,0.126
		c-0.616,0.075-1.244,0.138-1.872,0.188c-1.319,0.113-2.651,0.163-3.996,0.163c-27.205,0-49.257-22.065-49.257-49.27
		c0-2.023,0.138-4.008,0.377-5.981c-4.951,1.106-10.09,1.696-15.368,1.696c-39.041,0-70.682-31.64-70.682-70.669
		c0-29.655,18.258-55.012,44.131-65.517c-1.52-4.335-2.362-9.01-2.362-13.872c0-23.071,18.698-41.768,41.756-41.768
		c8.607,0,16.612,2.601,23.259,7.062c0.251-0.364,0.503-0.729,0.767-1.093c4.122-5.68,10.543-12.151,17.893-18.685
		c10.643-8.268,23.246-14.124,36.993-16.763c-4.461,10.857-5.655,24.051,4.247,36.541c-6.647-4.461-14.652-7.062-23.259-7.062
		c-19.376,0-35.674,13.219-40.386,31.125c-4.561-9.475-14.262-16.021-25.483-16.021c-15.619,0-28.273,12.654-28.273,28.273
		c0,10.09,5.29,18.936,13.232,23.938c-14.325,4.26-24.779,17.529-24.779,33.236c0,8.645,3.167,16.549,8.406,22.618
		c-6.873,5.164-11.309,13.37-11.309,22.618c0,15.619,12.654,28.273,28.273,28.273c5.83,0,11.234-1.759,15.732-4.788
		c12.905,13.872,31.314,22.555,51.745,22.555c5.278,0,10.417-0.591,15.368-1.696c-0.239,1.973-0.377,3.958-0.377,5.981
		C175.749,243.12,183.327,257.282,195.063,266.291z"/>
	<path style="fill:#CCCCCC;" d="M256.006,13.533c0,0-11.937,10.656-11.937,23.221c0,0-4.222-16.31-0.754-29.869
		C247.751,8.758,251.985,10.995,256.006,13.533z"/>
	<path style="fill:#CCCCCC;" d="M256.006,263.313c-4.021,3.719-8.884,6.522-14.287,8.067c-1.244-13.482,4.863-30.434,4.863-30.434
		C246.582,252.884,256.006,263.313,256.006,263.313z"/>
</g>
<g>
</g>
<g>
</g>
<g>
</g>
<g>
</g>
<g>
</g>
<g>
</g>
<g>
</g>
<g>
</g>
<g>
</g>
<g>
</g>
<g>
</g>
<g>
</g>
<g>
</g>
<g>
</g>
<g>
</g>
</svg>
