<?xml version="1.0" encoding="iso-8859-1"?>
<!-- Generator: Adobe Illustrator 19.0.0, SVG Export Plug-In . SVG Version: 6.00 Build 0)  -->
<svg version="1.1" id="Capa_1" xmlns="http://www.w3.org/2000/svg" xmlns:xlink="http://www.w3.org/1999/xlink" x="0px" y="0px"
	 viewBox="0 0 512.001 512.001" style="enable-background:new 0 0 512.001 512.001;" xml:space="preserve">
<polygon style="fill:#FFCE54;" points="407.937,241.569 455.105,207.427 442.562,192.77 382.351,192.77 "/>
<g style="opacity:0.2;">
	<path d="M441.813,193.27l12.543,14.657l-0.897,0.647h-17.605c0,0-12.301,1.521-15.975,15.976c-0.352,1.396-1.022,4.812-1.911,9.719
		l-10.78,7.801l-25.585-48.799L441.813,193.27L441.813,193.27z"/>
</g>
<polygon style="fill:#FFCE54;" points="105.344,241.569 58.176,207.427 70.719,192.77 130.93,192.77 "/>
<g style="opacity:0.2;">
	<path d="M70.719,192.77l-12.543,14.657l0.897,0.647h17.605c0,0,12.301,1.521,15.975,15.975c0.351,1.396,1.022,4.813,1.911,9.719
		l10.78,7.8l25.585-48.799L70.719,192.77L70.719,192.77z"/>
</g>
<g>
	<path style="fill:#656D78;" d="M425.814,174.689l21.725,25.398h-19.407c0,0-12.302,1.521-15.976,15.975
		c-1.755,6.95-11.021,62.302-20.211,118.059h-0.077L283.24,260.477l-0.164-0.086c0.804-2.628,1.279-5.429,1.279-8.385
		c0-4.392-1.038-8.463-2.878-12.138l0.163-0.078l85.547-78.121c17.091,6.864,40.976,14.454,52.48,14.454
		C421.501,176.125,423.576,175.649,425.814,174.689z"/>
	<path style="fill:#656D78;" d="M100.641,216.062c-3.674-14.454-15.976-15.975-15.976-15.975h-20.21l21.732-25.398
		c2.23,0.96,4.313,1.436,6.146,1.436c11.739,0,36.108-7.824,53.276-14.774l0.164,0.32l85.546,78.121
		c-1.841,3.674-2.878,7.824-2.878,12.215c0,2.956,0.476,5.834,1.357,8.471l-108.714,73.644l-0.234,0.078
		C111.663,278.364,102.396,223.012,100.641,216.062z"/>
</g>
<g>
	<path style="fill:#ED5565;" d="M236.671,271.741c0.64,0.718,1.357,1.357,2.153,1.997l-0.078,0.078l-114.86,77.715l-0.242,0.086
		c-0.881-5.757-1.833-11.583-2.792-17.418l0.234-0.078L229.8,260.477C231.157,264.792,233.551,268.622,236.671,271.741z"/>
	<path style="fill:#ED5565;" d="M276.126,271.655c3.198-3.111,5.593-6.949,6.95-11.264l0.164,0.086l108.628,73.644h0.077
		c-0.873,5.827-1.833,11.661-2.792,17.41h-0.078l-114.782-77.715l-0.164-0.241c0.718-0.562,1.357-1.201,1.997-1.834V271.655z"/>
	<path style="fill:#ED5565;" d="M161.507,154.4l80.671,73.643c-1.997,1.123-3.83,2.559-5.507,4.235v0.078
		c-2.239,2.161-4.08,4.634-5.351,7.434l-85.546-78.121l-0.164-0.32c6.708-2.8,12.379-5.429,15.655-7.348L161.507,154.4z"/>
	<path style="fill:#ED5565;" d="M367.188,161.67l-85.547,78.121l-0.163,0.078c-1.271-2.878-3.113-5.437-5.352-7.59
		c-1.6-1.599-3.354-3.034-5.352-4.235l80.68-73.643C354.886,156.319,360.557,158.956,367.188,161.67z"/>
</g>
<g style="opacity:0.2;">
	<path d="M238.824,273.738c-0.795-0.64-1.513-1.279-2.153-1.997c-3.12-3.119-5.515-6.949-6.872-11.264l-6.763,4.579
		c1.818,4.657,4.532,8.854,8.003,12.325c0.304,0.343,0.694,0.631,1.029,0.951l6.677-4.517L238.824,273.738z"/>
</g>
<g style="opacity:0.2;">
	<path d="M283.24,260.478l-0.164-0.086c-1.357,4.314-3.752,8.152-6.95,11.264v0.086c-0.64,0.633-1.279,1.271-1.997,1.834
		l0.164,0.241l6.536,4.423c0.297-0.297,0.633-0.562,0.929-0.857v-0.109c3.564-3.464,6.287-7.652,8.104-12.302L283.24,260.478z"/>
</g>
<g style="opacity:0.2;">
	<path d="M231.32,239.791c1.271-2.8,3.112-5.273,5.351-7.434v-0.078c1.677-1.677,3.51-3.112,5.507-4.235l-6.053-5.522
		c-1.794,1.209-3.519,2.543-5.086,4.118v0.102c-2.317,2.231-4.181,4.805-5.718,7.566L231.32,239.791z"/>
</g>
<g style="opacity:0.2;">
	<path d="M281.758,226.639c-1.505-1.505-3.175-2.854-4.953-4.103l-6.03,5.507c1.997,1.201,3.752,2.637,5.352,4.235
		c2.238,2.153,4.08,4.712,5.352,7.59l0.163-0.078l5.874-5.367C285.97,231.554,284.09,228.886,281.758,226.639z"/>
</g>
<g>
	<path style="fill:#3A3847;" d="M388.436,188.106c-2.208,0-4.033-1.786-4.033-3.994c0-2.207,1.747-3.994,3.947-3.994h0.086
		c2.2,0,3.993,1.787,3.993,3.994C392.429,186.32,390.636,188.106,388.436,188.106z"/>
	<path style="fill:#3A3847;" d="M124.845,188.106c-2.207,0-4.033-1.786-4.033-3.994c0-2.207,1.748-3.994,3.947-3.994h0.086
		c2.2,0,3.994,1.787,3.994,3.994C128.839,186.32,127.045,188.106,124.845,188.106z"/>
</g>
<g>
	<path style="fill:#AAB2BD;" d="M468.312,137.786l39.695,46.326l-39.938,39.938l-20.53-23.962l-21.725-25.398
		c13.261-5.351,32.028-25.078,42.411-36.903h0.087V137.786z"/>
	<path style="fill:#AAB2BD;" d="M405.924,79.634l70.133,49.048c0,0-3.034,3.752-7.831,9.103
		c-10.383,11.825-29.15,31.553-42.411,36.903c-2.238,0.96-4.313,1.436-6.146,1.436c-11.505,0-35.39-7.59-52.48-14.454
		c-6.631-2.715-12.302-5.351-15.733-7.27c-1.521-0.881-2.637-1.677-3.198-2.239c-5.351-5.351,5.515-27.715,6.068-28.83
		c4.158-0.405,7.59-1.279,9.751-2.956C377.89,109.907,395.542,91.217,405.924,79.634z"/>
	<path style="fill:#AAB2BD;" d="M354.324,123.332c-15.655,1.357-41.295-5.117-46.162-11.264c-0.64-0.881-1.123-2.395-1.279-4.392
		c-1.521-13.744,5.905-50.726,8.541-63.183c0.562-2.637,0.882-4.158,0.882-4.158l98.487,29.314c0,0-3.433,4.079-8.869,9.984
		c-10.382,11.583-28.034,30.273-41.849,40.741C361.914,122.052,358.482,122.926,354.324,123.332z"/>
</g>
<path style="fill:#656D78;" d="M298.974,108.23c-8.229,2.239-27.481,3.994-42.575,3.994c-15.414,0-34.829-1.833-43.05-4.15
	l-7.434-0.398c1.599-14.22-6.467-53.362-8.783-64.384l8.229-0.796c10.46-1.279,32.426-2.161,51.038-2.161s40.655,0.881,51.038,2.161
	l7.987,1.997c-2.636,12.457-10.062,49.438-8.541,63.183L298.974,108.23z"/>
<g style="opacity:0.2;">
	<path d="M298.974,108.23c-8.229,2.239-27.481,3.994-42.575,3.994c-15.414,0-34.829-1.833-43.05-4.15l-7.434-0.398
		c1.599-14.22-6.467-53.362-8.783-64.384l8.229-0.796c10.46-1.279,32.426-2.161,51.038-2.161s40.655,0.881,51.038,2.161l7.987,1.997
		c-2.636,12.457-10.062,49.438-8.541,63.183L298.974,108.23z"/>
</g>
<path style="fill:#656D78;" d="M356.243,471.665H156.554c-8.869,0-15.975-7.106-15.975-15.976c0,0-7.987-49.844-16.935-104.072
	l0.242-0.086l114.86-77.715l0.078-0.078c4.797,3.908,10.866,6.225,17.574,6.225c6.709,0,12.941-2.395,17.73-6.388l0.164,0.241
	l114.782,77.715h0.078c-8.869,54.314-16.935,104.158-16.935,104.158C372.219,464.559,365.112,471.665,356.243,471.665z"/>
<path style="fill:#FFCE54;" d="M256.398,263.988c6.631,0,11.981-5.352,11.981-11.982c0-6.63-5.351-11.981-11.981-11.981
	c-6.63,0-11.981,5.351-11.981,11.981C244.417,258.636,249.768,263.988,256.398,263.988z M229.799,260.478
	c-0.882-2.637-1.357-5.515-1.357-8.471c0-4.392,1.037-8.542,2.878-12.215c1.271-2.8,3.112-5.273,5.351-7.434v-0.078
	c1.677-1.677,3.51-3.112,5.507-4.235c4.158-2.551,9.025-3.994,14.22-3.994c5.273,0,10.227,1.443,14.376,3.994
	c1.997,1.201,3.752,2.637,5.352,4.235c2.238,2.153,4.08,4.712,5.352,7.59c1.84,3.674,2.878,7.746,2.878,12.138
	c0,2.956-0.476,5.757-1.279,8.385c-1.357,4.314-3.752,8.152-6.95,11.264v0.086c-0.64,0.633-1.279,1.271-1.997,1.834
	c-4.789,3.993-11.021,6.388-17.73,6.388c-6.708,0-12.777-2.316-17.574-6.225c-0.795-0.64-1.513-1.279-2.153-1.997
	C233.551,268.622,231.157,264.792,229.799,260.478z"/>
<g style="opacity:0.5;">
	<path style="fill:#FFFFFF;" d="M246.812,273.738c-0.796-0.64-1.514-1.279-2.153-1.997c-3.12-3.119-5.515-6.949-6.872-11.264
		c-0.881-2.637-1.357-5.515-1.357-8.471c0-4.392,1.038-8.542,2.879-12.215c1.271-2.8,3.112-5.273,5.351-7.434v-0.078
		c1.677-1.677,3.51-3.112,5.507-4.235c3.082-1.888,6.553-3.159,10.258-3.697c-1.318-0.188-2.66-0.296-4.025-0.296
		c-5.195,0-10.062,1.443-14.22,3.994c-1.997,1.123-3.83,2.559-5.507,4.235v0.078c-2.239,2.161-4.08,4.634-5.351,7.434
		c-1.841,3.674-2.878,7.824-2.878,12.215c0,2.956,0.476,5.834,1.357,8.471c1.357,4.314,3.752,8.145,6.872,11.264
		c0.64,0.718,1.357,1.357,2.153,1.997c4.797,3.908,10.866,6.225,17.574,6.225c1.342,0,2.645-0.163,3.939-0.351
		C255.244,278.879,250.619,276.843,246.812,273.738z"/>
</g>
<g style="opacity:0.2;">
	<path d="M266.001,230.282c0.796,0.64,1.514,1.279,2.153,1.997c3.12,3.113,5.515,6.95,6.872,11.264
		c0.881,2.636,1.357,5.507,1.357,8.463c0,4.392-1.038,8.549-2.879,12.223c-1.271,2.793-3.112,5.273-5.351,7.426v0.086
		c-1.678,1.678-3.511,3.113-5.507,4.229c-3.082,1.896-6.553,3.167-10.258,3.705c1.318,0.188,2.66,0.288,4.025,0.288
		c5.195,0,10.062-1.435,14.221-3.993c1.997-1.115,3.829-2.551,5.507-4.229v-0.086c2.238-2.152,4.08-4.633,5.352-7.426
		c1.84-3.674,2.878-7.832,2.878-12.223c0-2.956-0.476-5.827-1.357-8.463c-1.357-4.314-3.752-8.151-6.872-11.264
		c-0.64-0.717-1.357-1.357-2.152-1.997c-4.798-3.916-10.866-6.232-17.575-6.232c-1.342,0-2.645,0.164-3.939,0.351
		C257.569,225.134,262.194,227.178,266.001,230.282z"/>
</g>
<path style="fill:#656D78;" d="M268.38,252.006c0,6.63-5.351,11.982-11.981,11.982c-6.63,0-11.981-5.352-11.981-11.982
	c0-6.63,5.351-11.981,11.981-11.981C263.029,240.025,268.38,245.376,268.38,252.006z"/>
<path id="SVGCleanerId_0" style="fill:#656D78;" d="M213.348,108.074c8.222,2.317,27.637,4.15,43.05,4.15
	c15.094,0,34.346-1.755,42.575-3.994l7.909-0.554c0.156,1.997,0.64,3.51,1.279,4.392c4.867,6.146,30.507,12.621,46.162,11.264
	c-0.554,1.115-11.419,23.479-6.068,28.83c0.562,0.562,1.677,1.357,3.198,2.239l-80.68,73.643c-4.149-2.551-9.103-3.994-14.376-3.994
	c-5.195,0-10.062,1.443-14.22,3.994l-80.67-73.644l-0.242-0.398c1.123-0.718,1.997-1.357,2.48-1.841
	c5.507-5.507-6.076-28.916-6.076-28.916c15.577,1.677,42.021-4.953,46.966-11.178c0.64-0.881,1.123-2.395,1.279-4.392
	L213.348,108.074z"/>
<g>
	<path id="SVGCleanerId_0_1_" style="fill:#656D78;" d="M213.348,108.074c8.222,2.317,27.637,4.15,43.05,4.15
		c15.094,0,34.346-1.755,42.575-3.994l7.909-0.554c0.156,1.997,0.64,3.51,1.279,4.392c4.867,6.146,30.507,12.621,46.162,11.264
		c-0.554,1.115-11.419,23.479-6.068,28.83c0.562,0.562,1.677,1.357,3.198,2.239l-80.68,73.643
		c-4.149-2.551-9.103-3.994-14.376-3.994c-5.195,0-10.062,1.443-14.22,3.994l-80.67-73.644l-0.242-0.398
		c1.123-0.718,1.997-1.357,2.48-1.841c5.507-5.507-6.076-28.916-6.076-28.916c15.577,1.677,42.021-4.953,46.966-11.178
		c0.64-0.881,1.123-2.395,1.279-4.392L213.348,108.074z"/>
</g>
<g style="opacity:0.2;">
	<path d="M447.539,200.087l-21.725-25.398c-2.238,0.96-4.313,1.436-6.146,1.436c-11.505,0-35.39-7.59-52.48-14.454
		c-6.631-2.715-12.302-5.351-15.733-7.27c-1.521-0.881-2.637-1.677-3.198-2.239c-0.413-0.405-0.694-0.944-0.929-1.537
		c-0.818,4.111-0.842,7.753,0.929,9.524c0.562,0.562,1.677,1.357,3.198,2.239c3.432,1.919,9.103,4.555,15.733,7.27
		c17.091,6.864,40.976,14.454,52.48,14.454c1.833,0,3.908-0.476,6.146-1.435l14.892,17.411h6.833V200.087z"/>
	<path d="M308.162,120.055c4.517,5.702,26.896,11.678,42.605,11.428c1.7-4.353,3.354-7.738,3.557-8.151
		c-15.655,1.357-41.295-5.117-46.162-11.264c-0.64-0.881-1.123-2.395-1.279-4.392l-0.094,0.008
		c-0.141,3.089-0.141,5.835,0.094,7.979C307.039,117.661,307.522,119.174,308.162,120.055z"/>
</g>
<g style="opacity:0.2;">
	<path d="M298.974,108.23l7.909-0.554c-0.382-3.463-0.195-8.409,0.335-14.056c-0.133-0.593,0.273-1.186,0.219-1.919l-8.463,0.554
		c-8.229,2.239-27.481,3.994-42.575,3.994c-15.414,0-34.829-1.833-43.05-4.149l-7.987-0.398c-0.055,0.725,0.351,1.318,0.218,1.911
		c0.538,5.647,0.725,10.601,0.335,14.064l7.434,0.398c8.222,2.317,27.637,4.15,43.05,4.15
		C271.492,112.224,290.744,110.469,298.974,108.23z"/>
</g>
<g style="opacity:0.2;">
	<path style="fill:#FFFFFF;" d="M156.554,455.689c0,0-7.988-49.844-16.935-104.072c-0.881-5.757-1.833-11.583-2.792-17.418
		c-9.188-55.835-18.456-111.187-20.211-118.137c-3.674-14.454-15.975-15.975-15.975-15.975H84.666c0,0,12.301,1.521,15.976,15.975
		c1.755,6.95,11.021,62.302,20.21,118.137c0.959,5.835,1.911,11.661,2.792,17.418c8.947,54.229,16.935,104.072,16.935,104.072
		c0,8.869,7.106,15.976,15.975,15.976h15.975C163.66,471.665,156.554,464.559,156.554,455.689z"/>
</g>
<g style="opacity:0.2;">
	<path d="M65.282,200.087l21.724-25.398c2.239,0.96,4.313,1.436,6.147,1.436c11.505,0,35.39-7.59,52.48-14.454
		c6.63-2.715,12.301-5.351,15.733-7.27c1.521-0.881,2.637-1.677,3.198-2.239c0.413-0.405,0.694-0.944,0.928-1.537
		c0.819,4.111,0.843,7.753-0.928,9.524c-0.562,0.562-1.677,1.357-3.198,2.239c-3.432,1.919-9.103,4.555-15.733,7.27
		c-17.091,6.864-40.976,14.454-52.48,14.454c-1.833,0-3.908-0.476-6.147-1.435l-14.891,17.411h-6.833V200.087z"/>
	<path d="M204.659,120.055c-4.517,5.702-26.896,11.678-42.605,11.428c-1.701-4.353-3.354-7.738-3.557-8.151
		c15.655,1.357,41.295-5.117,46.163-11.264c0.64-0.881,1.123-2.395,1.279-4.392l0.094,0.008c0.14,3.089,0.14,5.835-0.094,7.979
		C205.782,117.661,205.298,119.174,204.659,120.055z"/>
</g>
<g style="opacity:0.2;">
	<path d="M356.243,455.689c0,0,7.988-49.844,16.935-104.072c0.882-5.757,1.833-11.583,2.793-17.418
		c9.188-55.835,18.455-111.187,20.21-118.137c3.675-14.454,15.976-15.975,15.976-15.975h15.976c0,0-12.302,1.521-15.976,15.975
		c-1.755,6.95-11.021,62.302-20.211,118.137c-0.959,5.835-1.911,11.661-2.792,17.418c-8.947,54.229-16.935,104.072-16.935,104.072
		c0,8.869-7.106,15.976-15.976,15.976h-15.975C349.138,471.665,356.243,464.559,356.243,455.689z"/>
</g>
<g>
	<path style="fill:#AAB2BD;" d="M43.769,137.786c10.382,11.825,29.158,31.553,42.418,36.903l-21.732,25.398L43.932,224.05
		L3.995,184.112l39.696-46.326H43.769z"/>
	<path style="fill:#AAB2BD;" d="M157.669,123.246c0,0,11.583,23.409,6.076,28.916c-0.483,0.483-1.357,1.123-2.48,1.841
		c-3.276,1.919-8.947,4.548-15.655,7.348c-17.168,6.95-41.537,14.774-53.276,14.774c-1.833,0-3.916-0.476-6.146-1.436
		c-13.261-5.351-32.036-25.078-42.418-36.903c-4.79-5.351-7.824-9.103-7.824-9.103l70.125-49.048l0.406-0.398
		c10.382,11.505,28.269,30.515,42.247,41.139C150.805,121.888,153.918,122.848,157.669,123.246z"/>
</g>
<g style="opacity:0.2;">
	<path d="M43.769,137.786h-0.078l-7.364,8.596c10.476,11.88,28.822,31.03,41.873,36.295c0.312,0.132,0.593,0.179,0.897,0.296
		l7.091-8.284C72.926,169.338,54.151,149.611,43.769,137.786z"/>
</g>
<g style="opacity:0.5;">
	<path style="fill:#FFFFFF;" d="M36.327,146.381l-32.332,37.73l7.987,7.988l32.005-37.348
		C41.179,151.78,38.55,148.901,36.327,146.381z"/>
</g>
<path style="fill:#AAB2BD;" d="M197.131,43.292c2.316,11.021,10.382,50.164,8.783,64.384c-0.156,1.997-0.64,3.51-1.279,4.392
	c-4.945,6.225-31.389,12.855-46.966,11.178c-3.752-0.397-6.864-1.357-8.947-2.87c-13.978-10.624-31.864-29.634-42.247-41.139
	c-5.195-5.749-8.471-9.586-8.471-9.586l98.487-29.314C196.492,40.336,196.733,41.374,197.131,43.292z"/>
<g style="opacity:0.5;">
	<path style="fill:#FFFFFF;" d="M105.235,77.637l93.3-27.543c-0.562-2.77-1.054-5.133-1.404-6.802
		c-0.398-1.919-0.64-2.957-0.64-2.957L98.004,69.65L105.235,77.637z"/>
</g>
<g style="opacity:0.2;">
	<path d="M157.669,123.246c-3.752-0.397-6.864-1.357-8.947-2.87c-13.978-10.624-31.864-29.634-42.247-41.139l-0.406,0.398
		l-8.838,6.186c0.429,0.483,0.788,0.889,1.256,1.404c10.383,11.505,28.269,30.515,42.247,41.139
		c2.083,1.514,5.195,2.473,8.947,2.871c3.409,0.367,7.356,0.32,11.466-0.016C159.362,126.678,157.669,123.246,157.669,123.246z"/>
</g>
<g style="opacity:0.5;">
	<path style="fill:#FFFFFF;" d="M98.488,87.224c-0.468-0.515-0.827-0.921-1.256-1.404l-61.287,42.863l7.824,9.103l61.1-43.604
		C102.56,91.693,100.368,89.314,98.488,87.224z"/>
</g>
<g style="opacity:0.2;">
	<path d="M468.911,137.786h0.078l7.364,8.596c-10.476,11.88-28.822,31.03-41.872,36.295c-0.312,0.132-0.594,0.179-0.897,0.296
		l-7.091-8.284C439.754,169.338,458.529,149.611,468.911,137.786z"/>
</g>
<g style="opacity:0.5;">
	<path style="fill:#FFFFFF;" d="M476.354,146.381l32.332,37.73l-7.987,7.988l-32.005-37.348
		C471.501,151.78,474.13,148.901,476.354,146.381z"/>
</g>
<g style="opacity:0.5;">
	<path style="fill:#FFFFFF;" d="M407.444,77.637l-93.3-27.543c0.562-2.77,1.054-5.133,1.404-6.802
		c0.397-1.919,0.64-2.957,0.64-2.957l98.487,29.314L407.444,77.637z"/>
</g>
<g style="opacity:0.2;">
	<path d="M355.011,123.246c3.752-0.397,6.864-1.357,8.947-2.87c13.979-10.624,31.864-29.634,42.246-41.139l0.406,0.398l8.838,6.186
		c-0.43,0.483-0.788,0.889-1.256,1.404c-10.383,11.505-28.269,30.515-42.247,41.139c-2.083,1.514-5.194,2.473-8.946,2.871
		c-3.409,0.367-7.356,0.32-11.467-0.016C353.318,126.678,355.011,123.246,355.011,123.246z"/>
</g>
<g style="opacity:0.5;">
	<path style="fill:#FFFFFF;" d="M414.192,87.224c0.468-0.515,0.826-0.921,1.256-1.404l61.287,42.863l-7.824,9.103l-61.1-43.604
		C410.12,91.693,412.313,89.314,414.192,87.224z"/>
</g>
<g>
	<path style="fill:#3A3847;" d="M256.398,116.218c-15.913,0-35.71-1.927-44.134-4.298c-2.122-0.601-3.362-2.808-2.762-4.93
		c0.601-2.122,2.762-3.377,4.93-2.761c7.699,2.168,26.919,4.001,41.966,4.001c14.821,0,33.839-1.763,41.529-3.854
		c2.153-0.593,4.321,0.687,4.899,2.809c0.576,2.129-0.68,4.321-2.809,4.898C291.625,114.369,272.062,116.218,256.398,116.218z"/>
	<path style="fill:#3A3847;" d="M256.398,132.193c-17.949,0-39.197-2.192-49.416-5.102c-2.122-0.608-3.354-2.816-2.746-4.938
		c0.601-2.122,2.785-3.37,4.93-2.746c9.454,2.691,30.203,4.798,47.231,4.798s37.777-2.106,47.231-4.798
		c2.13-0.616,4.321,0.624,4.93,2.746c0.608,2.122-0.624,4.329-2.745,4.938C295.596,130.001,274.348,132.193,256.398,132.193z"/>
	<path style="fill:#3A3847;" d="M163.004,127.505c-2.051,0.398-3.954-0.086-5.764-0.289c-4.579-0.483-8.245-1.701-10.866-3.611
		c-13.783-10.477-30.913-28.448-42.863-41.693c-5.242-5.796-8.541-9.665-8.541-9.665c-0.882-1.03-1.178-2.434-0.796-3.729
		c0.382-1.295,1.396-2.309,2.691-2.691l98.487-29.314c1.053-0.312,2.191-0.179,3.144,0.375c0.951,0.546,1.638,1.474,1.888,2.543
		l0.655,3.05c4.82,22.933,10.272,52.949,8.845,65.64c-0.195,2.535-0.897,4.759-2.02,6.295
		C202.061,121.725,178.621,127.505,163.004,127.505z M105.103,71.709c1.217,1.373,2.675,3.019,4.337,4.852
		c9.602,10.632,27.785,30.055,41.7,40.632c1.373,0.998,3.861,1.755,6.95,2.083c1.537,0.164,3.183,0.242,4.906,0.242h0.008
		c16.303,0,35.531-6.193,38.503-9.938c0-0.023,0.312-0.772,0.429-2.215c0.999-8.962-2.075-31.458-8.447-61.966L105.103,71.709z"/>
	<path style="fill:#3A3847;" d="M349.823,127.505c-15.639,0-39.11-5.78-44.789-12.964c-1.225-1.661-1.927-3.885-2.13-6.552
		c-1.552-13.97,5.507-49.641,8.612-64.322l0.881-4.149c0.234-1.092,0.905-2.044,1.864-2.613c0.952-0.569,2.106-0.718,3.183-0.39
		l98.487,29.314c1.295,0.382,2.302,1.388,2.684,2.675c0.39,1.295,0.102,2.691-0.765,3.721c0,0-3.479,4.126-8.986,10.117
		c-7.629,8.51-27.098,29.641-42.379,41.217c-2.605,2.02-6.365,3.221-11.778,3.744C353.139,127.442,351.509,127.505,349.823,127.505z
		 M319.316,45.398c-2.379,11.249-9.938,48.565-8.464,61.834c0.125,1.575,0.438,2.324,0.547,2.488
		c2.854,3.611,22.09,9.797,38.424,9.797c1.451,0,2.84-0.055,4.158-0.164c4.617-0.453,6.708-1.412,7.645-2.137
		c14.758-11.178,33.814-31.864,41.326-40.242c1.833-1.997,3.439-3.783,4.758-5.265L319.316,45.398z"/>
	<path style="fill:#3A3847;" d="M419.668,180.118c-13.635,0-40.343-9.267-53.971-14.743c-6.646-2.722-12.543-5.452-16.193-7.488
		c-1.279-0.741-2.979-1.817-4.063-2.886c-6.771-6.771,1.333-25.414,5.226-33.292c0.624-1.412,2.028-2.411,3.658-2.411
		c2.208,0,3.994,1.74,3.994,3.947v0.086c0,0.616-0.141,1.225-0.413,1.771c-5.117,10.305-8.425,22.091-6.811,24.259
		c0.172,0.164,0.921,0.749,2.356,1.576c3.338,1.864,8.907,4.438,15.249,7.036c16.958,6.817,40.156,14.157,50.968,14.157
		c1.287,0,2.87-0.382,4.571-1.115c9.368-3.783,24.274-16.841,40.982-35.866c2.005-2.23,3.697-4.181,4.977-5.687l-66.56-46.552
		c-1.81-1.264-2.255-3.752-0.991-5.562c1.271-1.818,3.775-2.239,5.562-0.983l70.133,49.041c0.912,0.64,1.513,1.622,1.669,2.714
		c0.156,1.1-0.156,2.208-0.851,3.073c0,0-3.081,3.814-7.964,9.259c-10.258,11.685-29.642,32.192-43.885,37.94
		C424.66,179.525,422.063,180.118,419.668,180.118z"/>
	<path style="fill:#3A3847;" d="M468.069,228.043c-0.055,0-0.102,0-0.156,0c-1.107-0.047-2.152-0.546-2.878-1.396l-42.255-49.36
		c-1.436-1.677-1.24-4.204,0.438-5.632c1.685-1.428,4.204-1.232,5.631,0.437l39.447,46.085l34.274-34.275l-37.294-43.518
		c-1.435-1.669-1.24-4.197,0.438-5.632c1.669-1.42,4.204-1.24,5.632,0.437l39.696,46.326c1.356,1.584,1.264,3.947-0.211,5.422
		l-39.938,39.938C470.145,227.623,469.13,228.043,468.069,228.043z"/>
	<path style="fill:#3A3847;" d="M140.571,459.684c-1.927,0-3.619-1.396-3.939-3.362c0,0-7.979-49.836-16.927-104.057
		c-0.889-5.78-1.841-11.6-2.792-17.418c-14.86-90.274-19.158-113.894-20.141-117.801c-2.972-11.678-12.496-12.98-12.598-12.996
		c-2.184-0.265-3.744-2.262-3.471-4.446c0.273-2.192,2.184-3.799,4.454-3.479c0.608,0.078,15.055,2.044,19.353,18.955
		c1.498,5.912,8.315,45.773,20.281,118.472c0.968,5.842,1.919,11.692,2.801,17.457c8.939,54.197,16.935,104.049,16.935,104.049
		c0.343,2.177-1.139,4.229-3.315,4.579C141,459.668,140.782,459.684,140.571,459.684z"/>
	<path style="fill:#3A3847;" d="M205.353,46.49c-1.989,0-3.705-1.49-3.955-3.51c-0.273-2.191,1.287-4.181,3.479-4.446
		c10.359-1.271,32.028-2.191,51.521-2.191c19.571,0,41.241,0.92,51.529,2.191c2.185,0.266,3.744,2.263,3.472,4.446
		c-0.273,2.192-2.2,3.736-4.454,3.479c-9.837-1.217-31.568-2.13-50.547-2.13c-18.9,0-40.64,0.913-50.554,2.13
		C205.68,46.482,205.517,46.49,205.353,46.49z"/>
	<path style="fill:#3A3847;" d="M156.554,475.658c-11.014,0-19.969-8.954-19.969-19.969c0-2.207,1.786-3.993,3.994-3.993
		s3.994,1.786,3.994,3.993c0,6.607,5.374,11.981,11.981,11.981c2.208,0,3.994,1.786,3.994,3.994
		C160.547,473.872,158.761,475.658,156.554,475.658z"/>
	<path style="fill:#3A3847;" d="M372.227,459.684c-0.219,0-0.429-0.016-0.647-0.047c-2.177-0.351-3.658-2.402-3.3-4.587
		c0,0,8.065-49.844,16.935-104.158c0.959-5.74,1.911-11.552,2.785-17.363c12.16-73.822,18.799-112.552,20.288-118.441
		c4.298-16.919,18.744-18.885,19.353-18.963c2.247-0.312,4.182,1.287,4.454,3.479c0.273,2.184-1.287,4.181-3.471,4.446
		c-0.358,0.054-9.673,1.505-12.598,12.996c-1.412,5.593-8.183,45.204-20.141,117.723c-0.866,5.796-1.833,11.654-2.792,17.426
		c-8.869,54.291-16.936,104.135-16.936,104.135C375.846,458.287,374.146,459.684,372.227,459.684z"/>
	<path style="fill:#3A3847;" d="M356.243,475.658c-2.207,0-3.994-1.786-3.994-3.993c0-2.208,1.787-3.994,3.994-3.994
		c6.607,0,11.981-5.374,11.981-11.981c0-2.207,1.786-3.993,3.994-3.993c2.207,0,3.993,1.786,3.993,3.993
		C376.212,466.704,367.258,475.658,356.243,475.658z"/>
	<path style="fill:#3A3847;" d="M356.243,475.658H156.554c-2.208,0-3.994-1.786-3.994-3.993c0-2.208,1.786-3.994,3.994-3.994
		h199.689c2.208,0,3.994,1.786,3.994,3.994C360.237,473.872,358.451,475.658,356.243,475.658z"/>
	<path style="fill:#3A3847;" d="M276.126,275.649c-1.037,0-2.075-0.397-2.863-1.201c-1.536-1.583-1.505-4.11,0.078-5.647
		c2.777-2.714,4.774-5.944,5.929-9.603c0.718-2.372,1.092-4.805,1.092-7.192c0-3.619-0.827-7.099-2.457-10.351
		c-1.115-2.512-2.621-4.641-4.548-6.505c-1.544-1.537-3.05-2.73-4.633-3.682c-7.231-4.438-17.13-4.532-24.455-0.023
		c-1.748,0.982-3.308,2.184-4.774,3.658c-1.56,1.56-4.087,1.56-5.647,0c-1.56-1.561-1.56-4.087,0-5.647
		c1.989-1.989,4.135-3.635,6.381-4.891c9.571-5.897,22.988-5.866,32.637,0.078c2.114,1.271,4.118,2.847,6.085,4.805
		c2.628,2.535,4.727,5.515,6.178,8.807c2.113,4.196,3.221,8.885,3.221,13.752c0,3.183-0.491,6.397-1.45,9.556
		c-1.545,4.898-4.298,9.368-7.987,12.956C278.139,275.275,277.132,275.649,276.126,275.649z"/>
	<path style="fill:#3A3847;" d="M256.398,283.957c-7.434,0-14.384-2.465-20.102-7.122c-0.952-0.771-1.825-1.56-2.605-2.441
		c-3.471-3.455-6.186-7.909-7.699-12.723c-1.022-3.034-1.545-6.311-1.545-9.665c0-4.852,1.139-9.696,3.3-14.01
		c1.365-3.011,3.456-5.92,6.154-8.51c1.584-1.529,4.111-1.49,5.647,0.102c1.529,1.591,1.482,4.118-0.109,5.647
		c-1.966,1.896-3.471,3.978-4.485,6.209c-1.693,3.385-2.519,6.896-2.519,10.562c0,2.496,0.39,4.914,1.154,7.2
		c1.146,3.658,3.183,6.989,5.904,9.704c0.655,0.726,1.217,1.217,1.833,1.716c8.588,7.005,21.803,6.935,30.242-0.117
		c0.671-0.53,1.178-1.045,1.692-1.552l5.633,5.663c-0.733,0.733-1.482,1.459-2.302,2.098
		C271.032,281.359,263.825,283.957,256.398,283.957z"/>
	<path style="fill:#3A3847;" d="M256.398,267.981c-8.807,0-15.975-7.16-15.975-15.975c0-8.807,7.168-15.975,15.975-15.975
		c8.808,0,15.976,7.168,15.976,15.975C272.374,260.821,265.206,267.981,256.398,267.981z M256.398,244.019
		c-4.407,0-7.988,3.588-7.988,7.987c0,4.407,3.581,7.988,7.988,7.988s7.988-3.581,7.988-7.988
		C264.387,247.607,260.806,244.019,256.398,244.019z"/>
	<path style="fill:#3A3847;" d="M281.641,243.785c-1.084,0-2.161-0.437-2.948-1.303c-1.49-1.63-1.373-4.157,0.258-5.64l85.546-78.12
		c1.63-1.49,4.157-1.365,5.64,0.249c1.49,1.631,1.373,4.158-0.258,5.647l-85.546,78.121
		C283.567,243.434,282.601,243.785,281.641,243.785z"/>
	<path style="fill:#3A3847;" d="M270.774,232.038c-1.084,0-2.16-0.437-2.948-1.303c-1.489-1.623-1.372-4.15,0.258-5.64
		l80.679-73.644c1.631-1.497,4.158-1.373,5.64,0.258c1.49,1.622,1.373,4.149-0.257,5.64l-80.68,73.643
		C272.702,231.694,271.734,232.038,270.774,232.038z"/>
	<path style="fill:#3A3847;" d="M389.075,355.525c-0.772,0-1.553-0.219-2.238-0.687l-114.783-77.715
		c-1.825-1.24-2.301-3.721-1.068-5.546c1.24-1.825,3.729-2.302,5.546-1.069l114.782,77.715c1.826,1.24,2.302,3.721,1.068,5.547
		C391.61,354.909,390.355,355.525,389.075,355.525z"/>
	<path style="fill:#3A3847;" d="M391.868,338.115c-0.772,0-1.553-0.227-2.239-0.687l-108.628-73.643
		c-1.825-1.24-2.301-3.729-1.068-5.554c1.24-1.826,3.721-2.286,5.546-1.061l108.628,73.643c1.825,1.24,2.301,3.721,1.068,5.547
		C394.403,337.499,393.147,338.115,391.868,338.115z"/>
	<path style="fill:#3A3847;" d="M231.32,243.785c-0.959,0-1.927-0.343-2.691-1.045l-85.547-78.121
		c-1.63-1.49-1.747-4.017-0.257-5.647c1.49-1.614,4.017-1.747,5.64-0.249l85.546,78.12c1.63,1.482,1.747,4.01,0.258,5.64
		C233.481,243.348,232.405,243.785,231.32,243.785z"/>
	<path style="fill:#3A3847;" d="M242.178,232.038c-0.959,0-1.927-0.344-2.691-1.045l-80.671-73.643
		c-1.63-1.49-1.747-4.018-0.257-5.64c1.482-1.63,4.017-1.755,5.64-0.258l80.671,73.644c1.63,1.49,1.747,4.017,0.257,5.64
		C244.339,231.601,243.262,232.038,242.178,232.038z"/>
	<path style="fill:#3A3847;" d="M123.886,355.525c-1.279,0-2.535-0.616-3.308-1.755c-1.24-1.826-0.757-4.307,1.068-5.547
		l114.86-77.715c1.825-1.232,4.313-0.756,5.546,1.069c1.24,1.825,0.757,4.306-1.068,5.546l-114.86,77.715
		C125.438,355.307,124.658,355.525,123.886,355.525z"/>
	<path style="fill:#3A3847;" d="M121.085,338.115c-1.279,0-2.535-0.616-3.307-1.755c-1.232-1.826-0.756-4.314,1.069-5.547
		L227.56,257.17c1.825-1.233,4.306-0.765,5.546,1.068c1.232,1.825,0.756,4.306-1.069,5.546l-108.713,73.644
		C122.638,337.889,121.858,338.115,121.085,338.115z"/>
	<path style="fill:#3A3847;" d="M256.398,232.038c-2.208,0-3.994-1.787-3.994-3.994v-3.994c0-2.208,1.786-3.994,3.994-3.994
		s3.994,1.786,3.994,3.994v3.994C260.393,230.251,258.606,232.038,256.398,232.038z"/>
	<path style="fill:#3A3847;" d="M256.398,283.957c-2.208,0-3.994-1.786-3.994-3.994v-3.993c0-2.208,1.786-3.994,3.994-3.994
		s3.994,1.786,3.994,3.994v3.993C260.393,282.171,258.606,283.957,256.398,283.957z"/>
	<path style="fill:#3A3847;" d="M239.464,239.065c-1.006,0-2.005-0.375-2.785-1.131l-2.793-2.714
		c-0.382-0.367-0.678-0.804-0.881-1.279c-0.242-0.507-0.375-1.069-0.375-1.662c0-2.207,1.748-3.993,3.955-3.993h0.086
		c1.326,0,2.504,0.647,3.229,1.646l2.348,2.278c1.583,1.537,1.615,4.064,0.078,5.647
		C241.546,238.66,240.501,239.065,239.464,239.065z"/>
	<path style="fill:#3A3847;" d="M276.212,275.735c-1.271,0-2.441-0.601-3.198-1.529l-2.465-2.402
		c-1.583-1.536-1.614-4.063-0.078-5.647c1.544-1.575,4.063-1.606,5.647-0.077l2.793,2.714c0.382,0.366,0.678,0.812,0.881,1.287
		c0.242,0.507,0.375,1.069,0.375,1.661C280.167,273.949,278.419,275.735,276.212,275.735z"/>
	<path style="fill:#3A3847;" d="M232.436,256h-3.994c-2.208,0-3.994-1.786-3.994-3.994s1.787-3.994,3.994-3.994h3.994
		c2.207,0,3.993,1.787,3.993,3.994S234.643,256,232.436,256z"/>
	<path style="fill:#3A3847;" d="M284.355,256h-3.994c-2.207,0-3.993-1.786-3.993-3.994s1.786-3.994,3.993-3.994h3.994
		c2.207,0,3.993,1.787,3.993,3.994S286.563,256,284.355,256z"/>
	<path style="fill:#3A3847;" d="M239.495,274.565l-5.593-5.702l2.738-2.745c1.56-1.561,4.087-1.553,5.647,0
		c1.56,1.56,1.56,4.087,0,5.646L239.495,274.565z"/>
	<path style="fill:#3A3847;" d="M273.333,239.065c-1.021,0-2.043-0.39-2.823-1.162c-1.56-1.56-1.56-4.087,0-5.655l2.792-2.792
		l5.594,5.702l-2.738,2.738C275.377,238.675,274.355,239.065,273.333,239.065z"/>
	<path style="fill:#3A3847;" d="M160.547,387.796c-8.807,0-15.975-7.161-15.975-15.976c0-2.208,1.786-3.994,3.993-3.994
		c2.208,0,3.994,1.786,3.994,3.994c0,4.407,3.58,7.987,7.987,7.987s7.988-3.58,7.988-7.987c0-2.208,1.787-3.994,3.994-3.994
		c2.208,0,3.994,1.786,3.994,3.994C176.523,380.635,169.354,387.796,160.547,387.796z"/>
	<path style="fill:#3A3847;" d="M144.65,384.683c-1.092,0-2.176-0.444-2.964-1.326c-1.481-1.638-1.349-4.157,0.289-5.639
		c1.653-1.482,2.598-3.636,2.598-5.897c0-2.208,1.786-3.994,3.993-3.994c2.208,0,3.994,1.786,3.994,3.994
		c0,4.524-1.911,8.838-5.234,11.833C146.562,384.34,145.602,384.683,144.65,384.683z"/>
	<path style="fill:#3A3847;" d="M184.51,387.796c-8.807,0-15.975-7.161-15.975-15.976c0-2.208,1.787-3.994,3.994-3.994
		c2.208,0,3.994,1.786,3.994,3.994c0,4.407,3.58,7.987,7.987,7.987s7.987-3.58,7.987-7.987c0-2.208,1.787-3.994,3.994-3.994
		s3.994,1.786,3.994,3.994C200.485,380.635,193.317,387.796,184.51,387.796z"/>
	<path style="fill:#3A3847;" d="M208.473,387.796c-8.807,0-15.976-7.161-15.976-15.976c0-2.208,1.787-3.994,3.994-3.994
		s3.994,1.786,3.994,3.994c0,4.407,3.581,7.987,7.988,7.987s7.987-3.58,7.987-7.987c0-2.208,1.786-3.994,3.994-3.994
		c2.207,0,3.993,1.786,3.993,3.994C224.448,380.635,217.28,387.796,208.473,387.796z"/>
	<path style="fill:#3A3847;" d="M232.436,387.796c-8.807,0-15.976-7.161-15.976-15.976c0-2.208,1.786-3.994,3.994-3.994
		c2.207,0,3.993,1.786,3.993,3.994c0,4.407,3.581,7.987,7.988,7.987c4.407,0,7.987-3.58,7.987-7.987
		c0-2.208,1.786-3.994,3.994-3.994s3.994,1.786,3.994,3.994C248.411,380.635,241.242,387.796,232.436,387.796z"/>
	<path style="fill:#3A3847;" d="M256.398,387.796c-8.807,0-15.975-7.161-15.975-15.976c0-2.208,1.786-3.994,3.994-3.994
		s3.994,1.786,3.994,3.994c0,4.407,3.581,7.987,7.988,7.987s7.988-3.58,7.988-7.987c0-2.208,1.786-3.994,3.993-3.994
		c2.208,0,3.994,1.786,3.994,3.994C272.374,380.635,265.206,387.796,256.398,387.796z"/>
	<path style="fill:#3A3847;" d="M280.361,387.796c-8.807,0-15.975-7.161-15.975-15.976c0-2.208,1.786-3.994,3.993-3.994
		c2.208,0,3.994,1.786,3.994,3.994c0,4.407,3.58,7.987,7.987,7.987s7.987-3.58,7.987-7.987c0-2.208,1.787-3.994,3.994-3.994
		s3.994,1.786,3.994,3.994C296.337,380.635,289.168,387.796,280.361,387.796z"/>
	<path style="fill:#3A3847;" d="M304.324,387.796c-8.807,0-15.976-7.161-15.976-15.976c0-2.208,1.787-3.994,3.994-3.994
		s3.994,1.786,3.994,3.994c0,4.407,3.58,7.987,7.987,7.987s7.987-3.58,7.987-7.987c0-2.208,1.787-3.994,3.994-3.994
		s3.994,1.786,3.994,3.994C320.3,380.635,313.131,387.796,304.324,387.796z"/>
	<path style="fill:#3A3847;" d="M328.287,387.796c-8.807,0-15.976-7.161-15.976-15.976c0-2.208,1.787-3.994,3.994-3.994
		s3.994,1.786,3.994,3.994c0,4.407,3.58,7.987,7.987,7.987s7.987-3.58,7.987-7.987c0-2.208,1.786-3.994,3.994-3.994
		c2.207,0,3.993,1.786,3.993,3.994C344.262,380.635,337.094,387.796,328.287,387.796z"/>
	<path style="fill:#3A3847;" d="M352.249,387.796c-8.806,0-15.975-7.161-15.975-15.976c0-2.208,1.786-3.994,3.994-3.994
		c2.207,0,3.993,1.786,3.993,3.994c0,4.407,3.581,7.987,7.987,7.987c4.408,0,7.988-3.58,7.988-7.987
		c0-2.208,1.786-3.994,3.994-3.994c2.207,0,3.993,1.786,3.993,3.994C368.225,380.635,361.056,387.796,352.249,387.796z"/>
	<path style="fill:#3A3847;" d="M368.225,384.683c-0.937,0-1.872-0.327-2.629-0.982c-3.4-2.972-5.358-7.301-5.358-11.88
		c0-2.208,1.786-3.994,3.994-3.994c2.207,0,3.993,1.786,3.993,3.994c0,2.27,0.96,4.399,2.629,5.858
		c1.661,1.45,1.833,3.97,0.382,5.631C370.448,384.215,369.34,384.683,368.225,384.683z"/>
	<path style="fill:#3A3847;" d="M172.529,411.758c-8.807,0-15.975-7.16-15.975-15.975c0-2.208,1.787-3.994,3.994-3.994
		c2.208,0,3.994,1.786,3.994,3.994c0,4.407,3.58,7.987,7.987,7.987s7.988-3.58,7.988-7.987c0-2.208,1.786-3.994,3.994-3.994
		s3.994,1.786,3.994,3.994C188.504,404.598,181.335,411.758,172.529,411.758z"/>
	<path style="fill:#3A3847;" d="M148.566,411.758c-2.207,0-3.993-1.786-3.993-3.993c0-2.208,1.786-3.994,3.993-3.994
		c4.407,0,7.988-3.58,7.988-7.987c0-2.208,1.787-3.994,3.994-3.994c2.208,0,3.994,1.786,3.994,3.994
		C164.542,404.598,157.373,411.758,148.566,411.758z"/>
	<path style="fill:#3A3847;" d="M196.492,411.758c-8.807,0-15.975-7.16-15.975-15.975c0-2.208,1.786-3.994,3.994-3.994
		s3.994,1.786,3.994,3.994c0,4.407,3.58,7.987,7.987,7.987s7.987-3.58,7.987-7.987c0-2.208,1.786-3.994,3.994-3.994
		c2.207,0,3.994,1.786,3.994,3.994C212.467,404.598,205.298,411.758,196.492,411.758z"/>
	<path style="fill:#3A3847;" d="M220.455,411.758c-8.807,0-15.976-7.16-15.976-15.975c0-2.208,1.786-3.994,3.994-3.994
		c2.207,0,3.994,1.786,3.994,3.994c0,4.407,3.581,7.987,7.988,7.987s7.987-3.58,7.987-7.987c0-2.208,1.786-3.994,3.994-3.994
		c2.207,0,3.993,1.786,3.993,3.994C236.429,404.598,229.261,411.758,220.455,411.758z"/>
	<path style="fill:#3A3847;" d="M244.417,411.758c-8.807,0-15.975-7.16-15.975-15.975c0-2.208,1.786-3.994,3.994-3.994
		c2.207,0,3.993,1.786,3.993,3.994c0,4.407,3.581,7.987,7.988,7.987s7.988-3.58,7.988-7.987c0-2.208,1.786-3.994,3.994-3.994
		s3.994,1.786,3.994,3.994C260.393,404.598,253.224,411.758,244.417,411.758z"/>
	<path style="fill:#3A3847;" d="M268.38,411.758c-8.807,0-15.975-7.16-15.975-15.975c0-2.208,1.786-3.994,3.994-3.994
		c2.208,0,3.994,1.786,3.994,3.994c0,4.407,3.58,7.987,7.987,7.987s7.988-3.58,7.988-7.987c0-2.208,1.786-3.994,3.993-3.994
		c2.208,0,3.994,1.786,3.994,3.994C284.355,404.598,277.187,411.758,268.38,411.758z"/>
	<path style="fill:#3A3847;" d="M292.343,411.758c-8.807,0-15.975-7.16-15.975-15.975c0-2.208,1.786-3.994,3.993-3.994
		c2.208,0,3.994,1.786,3.994,3.994c0,4.407,3.58,7.987,7.987,7.987s7.988-3.58,7.988-7.987c0-2.208,1.785-3.994,3.993-3.994
		s3.994,1.786,3.994,3.994C308.318,404.598,301.149,411.758,292.343,411.758z"/>
	<path style="fill:#3A3847;" d="M316.306,411.758c-8.807,0-15.975-7.16-15.975-15.975c0-2.208,1.785-3.994,3.993-3.994
		s3.994,1.786,3.994,3.994c0,4.407,3.58,7.987,7.987,7.987s7.987-3.58,7.987-7.987c0-2.208,1.786-3.994,3.994-3.994
		c2.207,0,3.993,1.786,3.993,3.994C332.28,404.598,325.112,411.758,316.306,411.758z"/>
	<path style="fill:#3A3847;" d="M340.269,411.758c-8.807,0-15.976-7.16-15.976-15.975c0-2.208,1.786-3.994,3.994-3.994
		c2.207,0,3.993,1.786,3.993,3.994c0,4.407,3.581,7.987,7.988,7.987s7.987-3.58,7.987-7.987c0-2.208,1.786-3.994,3.993-3.994
		c2.208,0,3.994,1.786,3.994,3.994C356.243,404.598,349.075,411.758,340.269,411.758z"/>
	<path style="fill:#3A3847;" d="M364.231,411.758c-8.807,0-15.976-7.16-15.976-15.975c0-2.208,1.786-3.994,3.993-3.994
		c2.208,0,3.994,1.786,3.994,3.994c0,4.407,3.58,7.987,7.988,7.987c2.207,0,3.993,1.786,3.993,3.994
		C368.225,409.972,366.439,411.758,364.231,411.758z"/>
	<path style="fill:#3A3847;" d="M184.51,435.721c-8.807,0-15.975-7.161-15.975-15.976c0-2.207,1.787-3.993,3.994-3.993
		c2.208,0,3.994,1.786,3.994,3.993c0,4.408,3.58,7.988,7.987,7.988s7.987-3.58,7.987-7.988c0-2.207,1.787-3.993,3.994-3.993
		s3.994,1.786,3.994,3.993C200.485,428.56,193.317,435.721,184.51,435.721z"/>
	<path style="fill:#3A3847;" d="M160.547,435.721c-4.149,0-8.058-1.56-10.998-4.392c-1.592-1.529-1.638-4.057-0.109-5.647
		c1.544-1.591,4.072-1.63,5.647-0.109c1.466,1.412,3.354,2.161,5.46,2.161c4.407,0,7.988-3.58,7.988-7.988
		c0-2.207,1.787-3.993,3.994-3.993c2.208,0,3.994,1.786,3.994,3.993C176.523,428.56,169.354,435.721,160.547,435.721z"/>
	<path style="fill:#3A3847;" d="M208.473,435.721c-8.807,0-15.976-7.161-15.976-15.976c0-2.207,1.787-3.993,3.994-3.993
		s3.994,1.786,3.994,3.993c0,4.408,3.581,7.988,7.988,7.988s7.987-3.58,7.987-7.988c0-2.207,1.786-3.993,3.994-3.993
		c2.207,0,3.993,1.786,3.993,3.993C224.448,428.56,217.28,435.721,208.473,435.721z"/>
	<path style="fill:#3A3847;" d="M232.436,435.721c-8.807,0-15.976-7.161-15.976-15.976c0-2.207,1.786-3.993,3.994-3.993
		c2.207,0,3.993,1.786,3.993,3.993c0,4.408,3.581,7.988,7.988,7.988c4.407,0,7.987-3.58,7.987-7.988
		c0-2.207,1.786-3.993,3.994-3.993s3.994,1.786,3.994,3.993C248.411,428.56,241.242,435.721,232.436,435.721z"/>
	<path style="fill:#3A3847;" d="M256.398,435.721c-8.807,0-15.975-7.161-15.975-15.976c0-2.207,1.786-3.993,3.994-3.993
		s3.994,1.786,3.994,3.993c0,4.408,3.581,7.988,7.988,7.988s7.988-3.58,7.988-7.988c0-2.207,1.786-3.993,3.993-3.993
		c2.208,0,3.994,1.786,3.994,3.993C272.374,428.56,265.206,435.721,256.398,435.721z"/>
	<path style="fill:#3A3847;" d="M280.361,435.721c-8.807,0-15.975-7.161-15.975-15.976c0-2.207,1.786-3.993,3.993-3.993
		c2.208,0,3.994,1.786,3.994,3.993c0,4.408,3.58,7.988,7.987,7.988s7.987-3.58,7.987-7.988c0-2.207,1.787-3.993,3.994-3.993
		s3.994,1.786,3.994,3.993C296.337,428.56,289.168,435.721,280.361,435.721z"/>
	<path style="fill:#3A3847;" d="M304.324,435.721c-8.807,0-15.976-7.161-15.976-15.976c0-2.207,1.787-3.993,3.994-3.993
		s3.994,1.786,3.994,3.993c0,4.408,3.58,7.988,7.987,7.988s7.987-3.58,7.987-7.988c0-2.207,1.787-3.993,3.994-3.993
		s3.994,1.786,3.994,3.993C320.3,428.56,313.131,435.721,304.324,435.721z"/>
	<path style="fill:#3A3847;" d="M328.287,435.721c-8.807,0-15.976-7.161-15.976-15.976c0-2.207,1.787-3.993,3.994-3.993
		s3.994,1.786,3.994,3.993c0,4.408,3.58,7.988,7.987,7.988s7.987-3.58,7.987-7.988c0-2.207,1.786-3.993,3.994-3.993
		c2.207,0,3.993,1.786,3.993,3.993C344.262,428.56,337.094,435.721,328.287,435.721z"/>
	<path style="fill:#3A3847;" d="M352.249,435.721c-8.806,0-15.975-7.161-15.975-15.976c0-2.207,1.786-3.993,3.994-3.993
		c2.207,0,3.993,1.786,3.993,3.993c0,4.408,3.581,7.988,7.987,7.988c2.075,0,3.979-0.733,5.375-2.075
		c1.592-1.521,4.111-1.481,5.647,0.109c1.528,1.583,1.482,4.118-0.109,5.647C360.276,434.192,356.399,435.721,352.249,435.721z"/>
	<path style="fill:#3A3847;" d="M196.492,459.684c-8.807,0-15.975-7.161-15.975-15.976c0-2.207,1.786-3.993,3.994-3.993
		s3.994,1.786,3.994,3.993c0,4.407,3.58,7.988,7.987,7.988s7.987-3.581,7.987-7.988c0-2.207,1.786-3.993,3.994-3.993
		c2.207,0,3.994,1.786,3.994,3.993C212.467,452.522,205.298,459.684,196.492,459.684z"/>
	<path style="fill:#3A3847;" d="M172.529,459.684c-8.807,0-15.975-7.161-15.975-15.976c0-2.207,1.787-3.993,3.994-3.993
		c2.208,0,3.994,1.786,3.994,3.993c0,4.407,3.58,7.988,7.987,7.988s7.988-3.581,7.988-7.988c0-2.207,1.786-3.993,3.994-3.993
		s3.994,1.786,3.994,3.993C188.504,452.522,181.335,459.684,172.529,459.684z"/>
	<path style="fill:#3A3847;" d="M156.156,456.969c-1.146,0-2.293-0.491-3.081-1.45c-1.404-1.701-1.162-4.221,0.538-5.625
		c1.896-1.56,2.941-3.76,2.941-6.186c0-2.207,1.787-3.993,3.994-3.993c2.208,0,3.994,1.786,3.994,3.993
		c0,4.79-2.13,9.291-5.843,12.348C157.95,456.673,157.053,456.969,156.156,456.969z"/>
	<path style="fill:#3A3847;" d="M220.455,459.684c-8.807,0-15.976-7.161-15.976-15.976c0-2.207,1.786-3.993,3.994-3.993
		c2.207,0,3.994,1.786,3.994,3.993c0,4.407,3.581,7.988,7.988,7.988s7.987-3.581,7.987-7.988c0-2.207,1.786-3.993,3.994-3.993
		c2.207,0,3.993,1.786,3.993,3.993C236.429,452.522,229.261,459.684,220.455,459.684z"/>
	<path style="fill:#3A3847;" d="M244.417,459.684c-8.807,0-15.975-7.161-15.975-15.976c0-2.207,1.786-3.993,3.994-3.993
		c2.207,0,3.993,1.786,3.993,3.993c0,4.407,3.581,7.988,7.988,7.988s7.988-3.581,7.988-7.988c0-2.207,1.786-3.993,3.994-3.993
		s3.994,1.786,3.994,3.993C260.393,452.522,253.224,459.684,244.417,459.684z"/>
	<path style="fill:#3A3847;" d="M268.38,459.684c-8.807,0-15.975-7.161-15.975-15.976c0-2.207,1.786-3.993,3.994-3.993
		c2.208,0,3.994,1.786,3.994,3.993c0,4.407,3.58,7.988,7.987,7.988s7.988-3.581,7.988-7.988c0-2.207,1.786-3.993,3.993-3.993
		c2.208,0,3.994,1.786,3.994,3.993C284.355,452.522,277.187,459.684,268.38,459.684z"/>
	<path style="fill:#3A3847;" d="M292.343,459.684c-8.807,0-15.975-7.161-15.975-15.976c0-2.207,1.786-3.993,3.993-3.993
		c2.208,0,3.994,1.786,3.994,3.993c0,4.407,3.58,7.988,7.987,7.988s7.988-3.581,7.988-7.988c0-2.207,1.785-3.993,3.993-3.993
		s3.994,1.786,3.994,3.993C308.318,452.522,301.149,459.684,292.343,459.684z"/>
	<path style="fill:#3A3847;" d="M316.306,459.684c-8.807,0-15.975-7.161-15.975-15.976c0-2.207,1.785-3.993,3.993-3.993
		s3.994,1.786,3.994,3.993c0,4.407,3.58,7.988,7.987,7.988s7.987-3.581,7.987-7.988c0-2.207,1.786-3.993,3.994-3.993
		c2.207,0,3.993,1.786,3.993,3.993C332.28,452.522,325.112,459.684,316.306,459.684z"/>
	<path style="fill:#3A3847;" d="M340.269,459.684c-8.807,0-15.976-7.161-15.976-15.976c0-2.207,1.786-3.993,3.994-3.993
		c2.207,0,3.993,1.786,3.993,3.993c0,4.407,3.581,7.988,7.988,7.988s7.987-3.581,7.987-7.988c0-2.207,1.786-3.993,3.993-3.993
		c2.208,0,3.994,1.786,3.994,3.993C356.243,452.522,349.075,459.684,340.269,459.684z"/>
	<path style="fill:#3A3847;" d="M356.243,456.649c-0.959,0-1.919-0.336-2.684-1.03c-3.369-3.058-5.304-7.395-5.304-11.911
		c0-2.207,1.786-3.993,3.993-3.993c2.208,0,3.994,1.786,3.994,3.993c0,2.301,0.952,4.423,2.684,5.991
		c1.63,1.474,1.755,4.001,0.281,5.64C358.412,456.212,357.327,456.649,356.243,456.649z"/>
	<path style="fill:#3A3847;" d="M92.653,236.031c-0.764,0-1.537-0.218-2.215-0.671l-23.963-15.975
		c-1.833-1.225-2.332-3.697-1.107-5.538c1.232-1.841,3.721-2.325,5.538-1.108l23.963,15.975c1.833,1.225,2.332,3.705,1.107,5.538
		C95.204,235.407,93.94,236.031,92.653,236.031z"/>
	<path style="fill:#3A3847;" d="M420.144,236.031c-1.287,0-2.551-0.624-3.322-1.779c-1.225-1.833-0.726-4.313,1.107-5.538
		l23.963-15.975c1.817-1.217,4.298-0.733,5.538,1.108c1.225,1.841,0.726,4.313-1.108,5.538L422.36,235.36
		C421.681,235.813,420.908,236.031,420.144,236.031z"/>
	<path style="fill:#3A3847;" d="M216.46,339.87c-1.021,0-2.044-0.391-2.824-1.17c-1.56-1.561-1.56-4.088,0-5.647l7.988-7.987
		c1.56-1.561,4.087-1.561,5.647,0c1.56,1.56,1.56,4.087,0,5.646l-7.988,7.988C218.504,339.479,217.482,339.87,216.46,339.87z"/>
	<path style="fill:#3A3847;" d="M232.436,339.87c-1.022,0-2.044-0.391-2.824-1.17l-7.987-7.988c-1.561-1.56-1.561-4.087,0-5.646
		c1.56-1.561,4.087-1.561,5.647,0l7.987,7.987c1.561,1.56,1.561,4.087,0,5.647C234.479,339.479,233.458,339.87,232.436,339.87z"/>
	<path style="fill:#3A3847;" d="M232.436,339.87c-1.022,0-2.044-0.391-2.824-1.17c-1.56-1.561-1.56-4.088,0-5.647l7.988-7.987
		c1.56-1.561,4.087-1.561,5.647,0c1.56,1.56,1.56,4.087,0,5.646l-7.988,7.988C234.479,339.479,233.458,339.87,232.436,339.87z"/>
	<path style="fill:#3A3847;" d="M248.411,339.87c-1.021,0-2.043-0.391-2.823-1.17l-7.988-7.988c-1.56-1.56-1.56-4.087,0-5.646
		c1.56-1.561,4.087-1.561,5.647,0l7.988,7.987c1.56,1.56,1.56,4.087,0,5.647C250.455,339.479,249.433,339.87,248.411,339.87z"/>
	<path style="fill:#3A3847;" d="M248.411,339.87c-1.021,0-2.043-0.391-2.823-1.17c-1.561-1.561-1.561-4.088,0-5.647l7.987-7.987
		c1.56-1.561,4.088-1.561,5.648,0c1.56,1.56,1.56,4.087,0,5.646l-7.988,7.988C250.455,339.479,249.433,339.87,248.411,339.87z"/>
	<path style="fill:#3A3847;" d="M264.387,339.87c-1.022,0-2.044-0.391-2.824-1.17l-7.988-7.988c-1.56-1.56-1.56-4.087,0-5.646
		c1.56-1.561,4.088-1.561,5.648,0l7.987,7.987c1.561,1.56,1.561,4.087,0,5.647C266.431,339.479,265.408,339.87,264.387,339.87z"/>
	<path style="fill:#3A3847;" d="M264.387,339.87c-1.022,0-2.044-0.391-2.824-1.17c-1.56-1.561-1.56-4.088,0-5.647l7.987-7.987
		c1.561-1.561,4.088-1.561,5.648,0c1.56,1.56,1.56,4.087,0,5.646l-7.988,7.988C266.431,339.479,265.408,339.87,264.387,339.87z"/>
	<path style="fill:#3A3847;" d="M280.361,339.87c-1.021,0-2.044-0.391-2.823-1.17l-7.988-7.988c-1.56-1.56-1.56-4.087,0-5.646
		c1.561-1.561,4.088-1.561,5.648,0l7.987,7.987c1.56,1.56,1.56,4.087,0,5.647C282.405,339.479,281.384,339.87,280.361,339.87z"/>
	<path style="fill:#3A3847;" d="M280.361,339.87c-1.021,0-2.044-0.391-2.823-1.17c-1.561-1.561-1.561-4.088,0-5.647l7.987-7.987
		c1.56-1.561,4.087-1.561,5.647,0c1.561,1.56,1.561,4.087,0,5.646l-7.987,7.988C282.405,339.479,281.384,339.87,280.361,339.87z"/>
	<path style="fill:#3A3847;" d="M296.337,339.87c-1.021,0-2.044-0.391-2.824-1.17l-7.987-7.988c-1.56-1.56-1.56-4.087,0-5.646
		c1.56-1.561,4.087-1.561,5.647,0l7.987,7.987c1.561,1.56,1.561,4.087,0,5.647C298.38,339.479,297.358,339.87,296.337,339.87z"/>
	<path style="fill:#3A3847;" d="M256.398,164.143c-2.208,0-3.994-1.786-3.994-3.994v-31.95c0-2.207,1.786-3.993,3.994-3.993
		s3.994,1.786,3.994,3.993v31.95C260.393,162.357,258.606,164.143,256.398,164.143z"/>
	<path style="fill:#3A3847;" d="M92.334,180.118c-2.402,0-5-0.593-7.723-1.763c-14.173-5.717-33.557-26.225-43.846-37.933
		c-4.844-5.414-7.925-9.228-7.925-9.228c-0.694-0.866-1.006-1.973-0.851-3.073c0.156-1.092,0.757-2.075,1.669-2.714l70.125-49.041
		c1.794-1.256,4.29-0.835,5.562,0.983c1.264,1.81,0.819,4.298-0.991,5.562l-66.553,46.552c1.271,1.498,2.957,3.44,4.946,5.663
		c7.925,9.025,27.73,30.531,40.936,35.858c1.778,0.765,3.354,1.146,4.649,1.146c10.991,0,34.54-7.504,51.779-14.485
		c6.755-2.815,12.145-5.343,15.132-7.09c1.264-0.812,1.67-1.209,1.686-1.225c1.599-2.122-1.709-13.947-6.841-24.313
		c-0.975-1.974-0.171-4.369,1.81-5.351c1.965-0.967,4.368-0.172,5.351,1.81c3.861,7.808,12.122,26.708,5.32,33.51
		c-0.694,0.694-1.724,1.466-3.151,2.379c-4.353,2.551-11.241,5.569-16.272,7.667C133.286,170.649,106.187,180.118,92.334,180.118z"
		/>
	<path style="fill:#3A3847;" d="M43.932,228.043c-1.061,0-2.075-0.421-2.823-1.17L1.17,186.936c-1.474-1.475-1.567-3.838-0.21-5.422
		l39.696-46.326c1.435-1.677,3.978-1.856,5.632-0.437c1.677,1.435,1.872,3.962,0.437,5.632L9.431,183.901l34.275,34.275
		l39.447-46.085c1.435-1.669,3.954-1.864,5.632-0.437c1.677,1.436,1.872,3.955,0.437,5.632l-42.255,49.36
		c-0.725,0.851-1.771,1.35-2.878,1.396C44.034,228.043,43.987,228.043,43.932,228.043z"/>
	<path style="fill:#3A3847;" d="M447.539,204.081h-19.407c-2.208,0-3.994-1.786-3.994-3.993c0-2.208,1.786-3.994,3.994-3.994h19.407
		c2.207,0,3.993,1.786,3.993,3.994C451.532,202.294,449.746,204.081,447.539,204.081z"/>
	<path style="fill:#3A3847;" d="M84.666,204.081h-20.21c-2.208,0-3.994-1.786-3.994-3.993c0-2.208,1.786-3.994,3.994-3.994h20.21
		c2.208,0,3.994,1.786,3.994,3.994C88.66,202.294,86.874,204.081,84.666,204.081z"/>
</g>
<g>
</g>
<g>
</g>
<g>
</g>
<g>
</g>
<g>
</g>
<g>
</g>
<g>
</g>
<g>
</g>
<g>
</g>
<g>
</g>
<g>
</g>
<g>
</g>
<g>
</g>
<g>
</g>
<g>
</g>
</svg>
