<?xml version="1.0" encoding="iso-8859-1"?>
<!-- Generator: Adobe Illustrator 18.0.0, SVG Export Plug-In . SVG Version: 6.00 Build 0)  -->
<!DOCTYPE svg PUBLIC "-//W3C//DTD SVG 1.1//EN" "http://www.w3.org/Graphics/SVG/1.1/DTD/svg11.dtd">
<svg xmlns="http://www.w3.org/2000/svg" xmlns:xlink="http://www.w3.org/1999/xlink" version="1.1" id="Capa_1" x="0px" y="0px" viewBox="0 0 64.657 64.657" style="enable-background:new 0 0 64.657 64.657;" xml:space="preserve" width="512px" height="512px">
<path d="M62.657,55.536c-7.155,0-12.058-1.685-14.574-5.007c-3.049-4.027-1.592-9.368-1.579-9.414  c0.175-0.604,0.056-1.255-0.322-1.759c-0.377-0.503-0.97-0.799-1.599-0.799h-5.59l4.655-9.734c0.122-0.254,0.188-0.532,0.195-0.814  c0.157-6.421,2.035-11.304,5.583-14.514c5.369-4.857,12.936-4.362,13.072-4.354c1.09,0.087,2.062-0.732,2.151-1.832  c0.089-1.101-0.731-2.066-1.832-2.155c-0.31-0.025-6.343-0.46-12.19,2.658C45.125,3.461,38.301,1.079,31.25,1.079  c-7.507,0-14.777,2.725-20.471,7.673C3.929,14.704,0,23.298,0,32.328c0,9.283,4.095,18.026,11.234,23.989  c5.605,4.682,12.714,7.261,20.016,7.261c6.852,0,13.529-2.265,18.953-6.402c3.242,1.565,7.399,2.36,12.454,2.36c1.104,0,2-0.896,2-2  S63.761,55.536,62.657,55.536z M4,32.328c0-7.345,2.984-14.359,8.236-19.483c4.078,3.186,6.251,8.264,6.419,15.164  c0.007,0.282,0.074,0.56,0.195,0.814l4.655,9.734h-5.59c-0.628,0-1.221,0.295-1.599,0.798c-0.377,0.502-0.497,1.153-0.323,1.757  c0.021,0.075,1.941,7.002-3.321,11.143C7.144,47.102,4,39.921,4,32.328z M31.25,59.578c-5.502,0-10.879-1.68-15.393-4.771  c4.03-3.625,4.778-8.649,4.445-12.249h6.377c0.687,0,1.326-0.353,1.692-0.934s0.409-1.31,0.112-1.929l-5.842-12.216  c-0.269-7.606-2.707-13.401-7.259-17.274C20,6.884,25.547,5.079,31.25,5.079c5.728,0,11.282,1.804,15.894,5.118  c-0.121,0.103-0.245,0.193-0.364,0.3c-4.332,3.898-6.66,9.609-6.921,16.981l-5.842,12.216c-0.296,0.62-0.254,1.348,0.112,1.929  s1.005,0.934,1.692,0.934h6.398c-0.244,2.601-0.061,6.741,2.646,10.346c0.52,0.693,1.114,1.325,1.766,1.91  C42.121,57.896,36.753,59.578,31.25,59.578z M53.79,22.484c2.514,0,4.551,2.038,4.551,4.551c0,2.514-2.038,4.551-4.551,4.551  s-4.551-2.038-4.551-4.551C49.238,24.521,51.276,22.484,53.79,22.484z M11.618,31.586c-2.514,0-4.551-2.038-4.551-4.551  c0-2.514,2.038-4.551,4.551-4.551s4.551,2.038,4.551,4.551C16.169,29.549,14.131,31.586,11.618,31.586z" fill="#423c0f"/>
<g>
</g>
<g>
</g>
<g>
</g>
<g>
</g>
<g>
</g>
<g>
</g>
<g>
</g>
<g>
</g>
<g>
</g>
<g>
</g>
<g>
</g>
<g>
</g>
<g>
</g>
<g>
</g>
<g>
</g>
</svg>
