<?xml version="1.0" encoding="iso-8859-1"?>
<!-- Generator: Adobe Illustrator 17.1.0, SVG Export Plug-In . SVG Version: 6.00 Build 0)  -->
<!DOCTYPE svg PUBLIC "-//W3C//DTD SVG 1.1//EN" "http://www.w3.org/Graphics/SVG/1.1/DTD/svg11.dtd">
<svg version="1.1" id="Capa_1" xmlns="http://www.w3.org/2000/svg" xmlns:xlink="http://www.w3.org/1999/xlink" x="0px" y="0px"
	 viewBox="0 0 376.312 376.312" style="enable-background:new 0 0 376.312 376.312;" xml:space="preserve">
<path d="M303.135,161.694v-46.715C303.135,51.58,251.556,0,188.156,0S73.177,51.58,73.177,114.979v46.715
	c-9.061,1.902-15.888,9.952-15.888,19.571v175.047c0,11.028,8.972,20,20,20h221.733c11.028,0,20-8.972,20-20V181.265
	C319.022,171.646,312.196,163.596,303.135,161.694z M86.886,354.598c-6.949,0-12.583-5.633-12.583-12.583
	s5.633-12.583,12.583-12.583s12.583,5.634,12.583,12.583S93.835,354.598,86.886,354.598z M86.886,208.143
	c-6.949,0-12.583-5.633-12.583-12.583s5.633-12.583,12.583-12.583s12.583,5.634,12.583,12.583S93.835,208.143,86.886,208.143z
	 M215.018,310.912c0.408,2.162-1.058,3.931-3.258,3.931h-46.677c-2.2,0-3.666-1.769-3.258-3.931l7.432-39.387
	c-5.626-5.131-9.157-12.52-9.157-20.734c0-15.495,12.561-28.056,28.056-28.056s28.056,12.561,28.056,28.056
	c0,7.991-3.346,15.195-8.707,20.305L215.018,310.912z M263.135,161.265H113.177v-46.285c0-41.344,33.635-74.979,74.979-74.979
	s74.979,33.636,74.979,74.979V161.265z M289.426,354.598c-6.949,0-12.583-5.633-12.583-12.583s5.633-12.583,12.583-12.583
	s12.583,5.634,12.583,12.583S296.375,354.598,289.426,354.598z M289.426,208.143c-6.949,0-12.583-5.633-12.583-12.583
	s5.633-12.583,12.583-12.583s12.583,5.634,12.583,12.583S296.375,208.143,289.426,208.143z"/>
<g>
</g>
<g>
</g>
<g>
</g>
<g>
</g>
<g>
</g>
<g>
</g>
<g>
</g>
<g>
</g>
<g>
</g>
<g>
</g>
<g>
</g>
<g>
</g>
<g>
</g>
<g>
</g>
<g>
</g>
</svg>
