<?xml version="1.0" encoding="iso-8859-1"?>
<!-- Generator: Adobe Illustrator 19.0.0, SVG Export Plug-In . SVG Version: 6.00 Build 0)  -->
<svg version="1.1" id="Capa_1" xmlns="http://www.w3.org/2000/svg" xmlns:xlink="http://www.w3.org/1999/xlink" x="0px" y="0px"
	 viewBox="0 0 511.999 511.999" style="enable-background:new 0 0 511.999 511.999;" xml:space="preserve">
<path style="fill:#EBECEC;" d="M65.22,106.414c0,158.256,103.091,326.961,263.285,402.073c24.648,11.557,52.929-6.857,52.213-34.071
	c-2.852-108.398,71.671-216.036,71.671-368.003L65.22,106.414L65.22,106.414z"/>
<path style="opacity:0.05;enable-background:new    ;" d="M65.22,106.415c0,158.256,103.091,326.961,263.285,402.073
	c14.38,6.743,29.987,3.272,40.361-6.184c-188.303-84.561-217.131-278.413-196.955-395.889
	C171.911,106.415,65.22,106.415,65.22,106.415z"/>
<path style="fill:#EBECEC;" d="M48.784,69.138c-19.07,74.713,111.299,118.749,205.061,128.804
	c93.763,10.055,202.851-4.225,215.218-63.69C480.32,80.123,428.119,26.211,290.601,5.238
	C176.014-12.237,62.536,15.259,48.784,69.138z"/>
<path style="opacity:0.1;enable-background:new    ;" d="M48.784,69.138c-19.07,74.713,111.299,118.749,205.061,128.804
	c93.763,10.055,202.851-4.225,215.218-63.69C480.32,80.123,428.119,26.211,290.601,5.238
	C176.014-12.237,62.536,15.259,48.784,69.138z"/>
<path style="opacity:0.1;enable-background:new    ;" d="M196.847,0.727C120.325,5.216,58.689,30.333,48.784,69.138
	c-13.47,52.772,47.617,90.235,117.698,111.233C100.37,127.717,72.64,40.407,196.847,0.727z"/>
<path style="opacity:0.1;enable-background:new    ;" d="M160.713,81.331c-11.823,25.993,52.602,49.408,100.696,53.884
	c48.095,4.476,99.668-5.968,107.833-25.362c8.166-19.394-20.19-47.536-89.509-53.831C211.947,49.866,169.902,61.128,160.713,81.331z
	"/>
<path style="fill:#EBECEC;" d="M79.648,211.083c56.973,63.404,275.362,78.919,348.398,53.25
	c17.444,3.438,13.638,74.326-25.151,83.553c-30.213,13.039-191.561,15.852-275.622-24.727
	C84.992,305.227,57.565,231.129,79.648,211.083z"/>
<path style="opacity:0.1;enable-background:new    ;" d="M79.648,211.083c56.973,63.404,275.362,78.919,348.398,53.25
	c17.444,3.438,13.638,74.326-25.151,83.553c-30.213,13.039-191.561,15.852-275.622-24.727
	C84.992,305.227,57.565,231.129,79.648,211.083z"/>
<path style="opacity:0.05;enable-background:new    ;" d="M175.024,257.752c-41.738-10.713-76.976-26.193-95.376-46.669
	c-22.083,20.046,5.344,94.145,47.625,112.076c21.968,10.605,49.217,18.241,78.022,23.51
	C191,317.704,181.205,287.566,175.024,257.752z"/>
<path style="fill:#EBECEC;" d="M168.383,382.251c23.863,13.004,138.327,41.245,219.666,22.162
	c12.438,15.767,9.842,46.049-7.311,57.413c-26.469,6.383-84.121,4.252-140.933-8.652
	C198.897,442.563,172.556,416.392,168.383,382.251z"/>
<path style="opacity:0.1;enable-background:new    ;" d="M168.383,382.251c23.863,13.004,138.327,41.245,219.666,22.162
	c12.438,15.767,9.842,46.049-7.311,57.413c-26.469,6.383-84.121,4.252-140.933-8.652
	C198.897,442.563,172.556,416.392,168.383,382.251z"/>
<path style="opacity:0.05;enable-background:new    ;" d="M240.169,402.609c-34.199-6.263-61.467-14.734-71.786-20.358
	c4.173,34.141,30.514,60.312,71.423,70.923c21.155,4.805,42.424,8.114,62.158,10.048
	C277.598,445.039,257.166,424.557,240.169,402.609z"/>
<g>
	<path style="fill:#464D59;" d="M399.054,246.5c-3.97,0-7.284-3.116-7.484-7.125c-0.207-4.138,2.979-7.658,7.116-7.865
		c11.232-0.563,57.786-21.66,65.083-37.055c1.774-3.743,6.245-5.338,9.99-3.565c3.743,1.774,5.339,6.247,3.565,9.989
		c-5.87,12.385-23.554,23.61-37.355,30.847c-12.935,6.781-31.136,14.295-40.533,14.765C399.307,246.497,399.18,246.5,399.054,246.5z
		"/>
	<path style="fill:#464D59;" d="M196.234,378c-0.179,0-0.358-0.006-0.539-0.019c-12.77-0.907-63.019-16.278-84.63-27.875
		c-3.65-1.958-5.021-6.505-3.063-10.154c1.958-3.65,6.505-5.021,10.155-3.063c20.097,10.783,68.865,25.438,78.6,26.129
		c4.132,0.294,7.243,3.881,6.95,8.013C203.427,374.982,200.135,378,196.234,378z"/>
	<path style="fill:#464D59;" d="M96.034,199.72c-0.706,0-1.422-0.101-2.133-0.311c-11.464-3.396-52.425-23.372-59.495-42.78
		c-1.418-3.892,0.588-8.196,4.479-9.614s8.197,0.587,9.614,4.479c0.656,1.801,4.138,8.525,21.413,19.478
		c11.055,7.008,22.579,12.375,28.249,14.055c3.972,1.177,6.237,5.351,5.061,9.321C102.256,197.608,99.27,199.72,96.034,199.72z"/>
	<path style="fill:#464D59;" d="M272.46,322.394c-27.563,0-63.19-8.488-71.268-11.719c-3.846-1.538-5.717-5.903-4.179-9.749
		c1.539-3.846,5.904-5.717,9.749-4.179c7.543,3.017,44.331,11.569,69.855,10.568c4.126-0.162,7.626,3.061,7.788,7.2
		c0.163,4.139-3.061,7.626-7.2,7.788C275.657,322.364,274.072,322.394,272.46,322.394z"/>
	<path style="fill:#464D59;" d="M359.854,444.959c-4.142,0-7.5-3.357-7.5-7.5s3.358-7.5,7.5-7.5c14.497,0,43.646-3.463,64.53-13.004
		c3.765-1.719,8.216-0.061,9.938,3.706c1.721,3.768,0.063,8.217-3.706,9.939C405.753,441.958,373.457,444.959,359.854,444.959z"/>
</g>
<g>
</g>
<g>
</g>
<g>
</g>
<g>
</g>
<g>
</g>
<g>
</g>
<g>
</g>
<g>
</g>
<g>
</g>
<g>
</g>
<g>
</g>
<g>
</g>
<g>
</g>
<g>
</g>
<g>
</g>
</svg>
