<svg height="496pt" viewBox="-40 0 496 496" width="496pt" xmlns="http://www.w3.org/2000/svg"><g fill="#f0bc5e"><path d="m336 247.929688c0-11.792969-5.847656-18.128907-10.128906-22.753907-3.664063-3.96875-5.871094-6.351562-5.871094-11.886719 0-5.535156 2.207031-7.921874 5.871094-11.890624 4.28125-4.621094 10.128906-10.957032 10.128906-22.75 0-11.792969-5.847656-18.128907-10.128906-22.753907-3.664063-3.964843-5.871094-6.359375-5.871094-11.894531h-32v64c0 21.992188-9.03125 41.734375-23.40625 56.175781-.371094-2.9375-.59375-5.886719-.59375-8.863281 0-9.976562-2.953125-19.738281-8.480469-28.039062l-.007812-.007813c-4.6875-7.035156-12.582031-11.265625-21.039063-11.265625-6.703125 0-13.136718 2.664062-17.871094 7.398438l-8.601562 8.601562-8.59375-8.601562c-4.742188-4.734376-11.175781-7.398438-17.878906-7.398438-8.457032 0-16.351563 4.222656-21.039063 11.265625l-.007812.007813c-5.527344 8.300781-8.480469 18.0625-8.480469 28.039062 0 2.976562-.222656 5.925781-.59375 8.863281-14.375-14.441406-23.40625-34.183593-23.40625-56.175781v-64h-32c0 5.535156-2.207031 7.929688-5.871094 11.894531-4.28125 4.625-10.128906 10.960938-10.128906 22.753907 0 11.792968 5.847656 18.128906 10.128906 22.75 3.664063 3.96875 5.871094 6.363281 5.871094 11.890624 0 5.527344-2.207031 7.917969-5.871094 11.886719-4.28125 4.632813-10.128906 10.96875-10.128906 22.753907 0 11.796874 5.847656 18.132812 10.128906 22.765624 3.664063 3.96875 5.871094 6.367188 5.871094 11.90625 0 5.542969-2.207031 7.949219-5.878906 11.925782-4.273438 4.640625-10.121094 10.976562-10.121094 22.777344h68.039062c12.472657-8.320313 19.960938-22.3125 19.960938-37.304688h5.304688c-.792969-.382812-1.503907-.894531-2.289063-1.304688 15.007813-6.398437 27.878906-17.039062 36.984375-30.695312 9.105469 13.65625 21.976562 24.296875 36.984375 30.695312-.777344.410157-1.488281.921876-2.289063 1.304688h5.304688c0 14.992188 7.488281 28.984375 19.960938 37.304688h68.039062c0-11.808594-5.847656-18.144532-10.121094-22.777344-3.671875-3.976563-5.878906-6.375-5.878906-11.925782 0-5.539062 2.207031-7.9375 5.871094-11.90625 4.28125-4.632812 10.128906-10.96875 10.128906-22.765624zm0 0"/><path d="m328 432c-26 0-35.929688-8.617188-37.65625-10.34375l11.113281-11.503906c.0625.054687 6.992188 5.847656 26.542969 5.847656s26.480469-5.792969 26.542969-5.847656l11.113281 11.503906c-1.726562 1.726562-11.65625 10.34375-37.65625 10.34375zm0 0"/><path d="m328 464c-26 0-35.929688-8.617188-37.65625-10.34375l11.113281-11.503906c.0625.054687 6.992188 5.847656 26.542969 5.847656s26.480469-5.792969 26.542969-5.847656l11.113281 11.503906c-1.726562 1.726562-11.65625 10.34375-37.65625 10.34375zm0 0"/><path d="m88 432c-26 0-35.929688-8.617188-37.65625-10.34375l11.113281-11.503906c.0625.054687 6.992188 5.847656 26.542969 5.847656s26.480469-5.792969 26.542969-5.847656l11.113281 11.503906c-1.726562 1.726562-11.65625 10.34375-37.65625 10.34375zm0 0"/><path d="m88 464c-26 0-35.929688-8.617188-37.65625-10.34375l11.113281-11.503906c.0625.054687 6.992188 5.847656 26.542969 5.847656s26.480469-5.792969 26.542969-5.847656l11.113281 11.503906c-1.726562 1.726562-11.65625 10.34375-37.65625 10.34375zm0 0"/></g><path d="m256 176c0 4.417969-3.582031 8-8 8s-8-3.582031-8-8 3.582031-8 8-8 8 3.582031 8 8zm0 0"/><path d="m176 176c0 4.417969-3.582031 8-8 8s-8-3.582031-8-8 3.582031-8 8-8 8 3.582031 8 8zm0 0"/><path d="m200 64h16v16h-16zm0 0"/><path d="m264 64h16v16h-16zm0 0"/><path d="m136 64h16v16h-16zm0 0"/><path d="m398.464844 0c-7.21875 0-13.617188 4.328125-16.289063 11.023438l-6.816406 17.039062c-3.886719 9.738281-10.382813 18.210938-18.773437 24.503906-9.832032 7.371094-22.027344 11.433594-34.3125 11.433594h-13.234376c-18.023437-37.777344-56.472656-64-101.039062-64s-83.015625 26.222656-101.039062 64h-13.234376c-12.285156 0-24.480468-4.0625-34.3125-11.433594-8.390624-6.292968-14.878906-14.765625-18.773437-24.503906l-6.816406-17.03125c-2.664063-6.703125-9.0625-11.03125-16.289063-11.03125-9.671875 0-17.535156 7.863281-17.535156 17.535156v35.21875c0 19.429688 6.847656 38.359375 19.289062 53.285156 15.167969 18.199219 37.152344 28.863282 60.710938 29.777344v.183594c0 8.824219 7.175781 16 16 16h24v56c0 22.023438 8.128906 42.753906 22.800781 58.953125-1.082031 5.679687-2.839843 11.222656-5.417969 16.390625l-9.175781 18.351562 29.808594-9.933593c-2.566406 7.613281-7.527344 14.300781-14.414063 18.894531l-2.027343 1.34375h-45.574219c-39.703125 0-72 32.304688-72 72v8h24v104h320v-104h24v-8c0-39.695312-32.296875-72-72-72h-45.574219l-2.019531-1.34375c-6.886719-4.59375-11.855469-11.28125-14.414062-18.894531l29.808593 9.933593-9.175781-18.351562c-2.585938-5.167969-4.34375-10.71875-5.417969-16.390625 14.671875-16.210937 22.792969-36.929687 22.792969-58.953125v-56h24c8.824219 0 16-7.175781 16-16v-.175781c23.550781-.914063 45.542969-11.578125 60.710938-29.777344 12.441406-14.925781 19.289062-33.855469 19.289062-53.285156v-35.226563c0-9.671875-7.863281-17.535156-17.535156-17.535156zm-94.871094 104h-47.625c-.121094-31.503906-10.375-61.359375-29.015625-86.105469 41.335937 8.3125 73.078125 43.265625 76.640625 86.105469zm-63.617188 0h-63.945312c.136719-31.304688 11.472656-60.792969 31.96875-84.105469 20.496094 23.3125 31.832031 52.800781 31.976562 84.105469zm-50.9375-86.105469c-18.632812 24.746094-28.886718 54.601563-29.015624 86.105469h-47.625c3.570312-42.839844 35.3125-77.792969 76.640624-86.105469zm-109.023437 101.929688c-18.800781-.894531-36.3125-9.480469-48.429687-24.015625-10.058594-12.066406-15.585938-27.351563-15.585938-43.046875v-35.226563c0-1.480468 2.414062-1.949218 2.96875-.574218l6.816406 17.039062c4.984375 12.464844 13.292969 23.3125 24.039063 31.359375 12.574219 9.441406 28.167969 14.640625 43.902343 14.640625h6.992188c-2.292969 7.6875-3.71875 15.726562-4.3125 24h-.40625c-8.761719 0-15.886719 7.078125-15.984375 15.824219zm183.984375 220.34375v14.6875c-9.472656 4.113281-32.878906 13.144531-56 13.144531-23.039062 0-46.503906-9.03125-56-13.144531v-14.679688c12.703125 4.96875 34.152344 11.824219 56 11.824219s43.296875-6.855469 56-11.832031zm-22.910156 139.832031h-113.089844v-84.238281c32.046875 34.894531 70.558594 63.511719 113.089844 84.238281zm-99.027344-92.648438c3.328125-2.429687 6.015625-5.671874 7.746094-9.464843 38.648437 40.226562 86.023437 71.65625 138.191406 91.519531v10.59375h-6.472656c-52.976563-19.480469-100.925782-51.464844-139.464844-92.648438zm145.9375 64.839844c-42.230469-16.917968-81.03125-41.742187-114.089844-72.925781 10.355469 2.671875 22.152344 4.734375 34.089844 4.734375 22.078125 0 43.761719-7.007812 56.40625-11.992188 1.921875 11.328126 11.730469 19.992188 23.59375 19.992188zm-80-116.191406c-22.0625 0-44.558594-8.304688-54.761719-12.617188 11.601563-8.039062 19.3125-20.230468 21.808594-33.871093 10.417969 4.207031 21.632813 6.488281 32.953125 6.488281 11.328125 0 22.542969-2.207031 32.96875-6.414062 2.503906 13.613281 10.214844 25.773437 21.792969 33.804687-10.175781 4.3125-32.617188 12.609375-54.761719 12.609375zm-18.257812-58.496094c6.761718-4.59375 12.929687-10.0625 18.257812-16.28125 5.34375 6.242188 11.527344 11.722656 18.3125 16.320313-11.9375 3.042969-24.648438 2.992187-36.570312-.039063zm11.601562-33.945312c-9.335938 14.007812-23.273438 24.648437-39.238281 29.96875l-4.632813 1.542968c1.671875-6.4375 2.527344-13.101562 2.527344-19.75 0-8.433593 2.472656-16.59375 7.152344-23.617187 3.207031-4.824219 8.582031-7.703125 14.375-7.703125 4.617187 0 8.953125 1.800781 12.214844 5.054688l10.355468 10.359374zm-98.816406 84.441406c-3.3125 9.289062-12.113282 16-22.527344 16h-23.089844c10.105469-9.871094 23.882813-16 39.089844-16zm-57.0625 32h34.535156c19.3125 0 35.472656-13.769531 39.191406-32h16.808594v40c0 4.40625-3.585938 8-8 8h-87.433594c.816406-5.65625 2.523438-11.015625 4.898438-16zm18.535156 32h48v88h-48zm288 88h-48v-88h48zm7.089844-136h-23.089844c-10.414062 0-19.214844-6.710938-22.527344-16h6.527344c15.207031 0 28.984375 6.128906 39.089844 16zm-79.089844-16h16.808594c3.71875 18.230469 19.871094 32 39.191406 32h34.535156c2.375 4.984375 4.082032 10.34375 4.890625 16h-87.425781c-4.414062 0-8-3.59375-8-8zm-26.105469-54.472656c-15.964843-5.320313-29.902343-15.960938-39.238281-29.96875l-2.761719-4.144532 10.351563-10.351562c7.378906-7.359375 20.832031-6.015625 26.609375 2.648438 4.671875 7.015624 7.144531 15.175781 7.144531 23.609374 0 6.65625.855469 13.3125 2.527344 19.757813zm26.105469-65.527344c0 12.632812-3.289062 24.734375-9.367188 35.433594-1.511718-7.304688-4.273437-14.304688-8.472656-20.601563-6.175781-9.289062-16.535156-14.832031-27.6875-14.832031-8.878906 0-17.242187 3.464844-23.527344 9.742188l-2.945312 2.9375-2.9375-2.945313c-6.285156-6.269531-14.648438-9.734375-23.535156-9.734375-11.160156 0-21.511719 5.542969-27.703125 14.839844-4.191407 6.296875-6.953125 13.296875-8.464844 20.601562-6.070313-10.699218-9.359375-22.808594-9.359375-35.441406v-56h144zm-184-72v-16h224l.007812 16zm304-83.238281c0 15.695312-5.527344 30.992187-15.585938 43.046875-12.117187 14.542968-29.628906 23.121094-48.429687 24.015625-.097656-8.746094-7.222656-15.824219-15.984375-15.824219h-.40625c-.59375-8.273438-2.019531-16.3125-4.3125-24h6.992188c15.734374 0 31.328124-5.199219 43.902343-14.640625 10.746094-8.054687 19.054688-18.894531 24.039063-31.359375l6.816406-17.039062c.554688-1.359376 2.96875-.898438 2.96875.574218zm0 0"/></svg>